<svg xmlns="http://www.w3.org/2000/svg" width="16" height="16" viewBox="0 0 16 16">
  <g id="favicon" transform="translate(-6508 149.927)">
    <path id="Path_3352" data-name="Path 3352" d="M16.4,8.417A7.968,7.968,0,1,1,8.436.449,7.968,7.968,0,0,1,16.4,8.417" transform="translate(6507.595 -150.315)" fill="#fff"/>
    <path id="Path_3353" data-name="Path 3353" d="M8,16a8,8,0,1,1,8-8,8.009,8.009,0,0,1-8,8M8,.2A7.8,7.8,0,1,0,15.8,8,7.813,7.813,0,0,0,8,.2" transform="translate(6508 -149.928)" fill="#003a84"/>
    <path id="Path_3354" data-name="Path 3354" d="M6.061,39.28a.051.051,0,0,1-.05-.039h-.1l.011.008a.036.036,0,0,1,0,.049.035.035,0,0,1-.049,0,.034.034,0,0,1-.01-.024l-.033-.012,0,0,.086.086a.042.042,0,0,1,.049.068.043.043,0,0,1-.059,0,.042.042,0,0,1-.007-.049l-.087-.087a.063.063,0,0,1-.023.009v.167a.051.051,0,1,1-.026,0v-.167a.065.065,0,0,1-.025-.011l-.086.087a.043.043,0,0,1-.007.049.043.043,0,0,1-.06,0,.042.042,0,0,1-.012-.03.043.043,0,0,1,.012-.03.042.042,0,0,1,.049-.008l.086-.087v0l-.032.012a.033.033,0,0,1-.01.024.035.035,0,1,1-.049-.049.039.039,0,0,1,.011-.008h-.1a.051.051,0,1,1,0-.025H5.7a.064.064,0,0,1,.011-.025L5.629,39.1a.042.042,0,0,1-.049-.008.042.042,0,0,1,0-.06.043.043,0,0,1,.059,0,.042.042,0,0,1,.008.049l.086.087a.065.065,0,0,1,.023-.009v-.176a.051.051,0,1,1,.026,0v.176a.068.068,0,0,1,.025.011l.086-.087a.042.042,0,0,1,.008-.049.042.042,0,1,1,.01.067l-.087.087a.063.063,0,0,1,.009.024h.177a.051.051,0,0,1,.1.013.051.051,0,0,1-.051.051m.312-.117a.249.249,0,0,0-.357-.227.24.24,0,0,0,0-.028.251.251,0,1,0-.5,0s0,.008,0,.012a.246.246,0,0,0-.1-.021.252.252,0,0,0-.079.491.252.252,0,0,0,.205.4.249.249,0,0,0,.218-.13.25.25,0,1,0,.431-.253.252.252,0,0,0,.179-.24" transform="translate(6503.532 -183.348)" fill="#2c823a"/>
    <path id="Path_3355" data-name="Path 3355" d="M103.769,39.28a.051.051,0,0,1-.049-.039h-.1l.011.008a.036.036,0,0,1,0,.049.035.035,0,0,1-.049,0,.034.034,0,0,1-.01-.024l-.033-.012,0,0,.086.086a.042.042,0,0,1,.049.068.043.043,0,0,1-.059,0,.042.042,0,0,1-.007-.049l-.087-.087a.061.061,0,0,1-.023.009v.167a.051.051,0,1,1-.025,0v-.167a.067.067,0,0,1-.025-.011l-.086.087a.042.042,0,0,1-.008.049.043.043,0,0,1-.059,0,.043.043,0,0,1-.012-.03.042.042,0,0,1,.012-.03.042.042,0,0,1,.049-.008l.086-.087v0l-.032.012a.035.035,0,0,1-.01.024.035.035,0,0,1-.049,0,.035.035,0,0,1,0-.049.036.036,0,0,1,.011-.008h-.1a.051.051,0,0,1-.049.039.051.051,0,0,1,0-.1.051.051,0,0,1,.049.039h.175a.06.06,0,0,1,.011-.025l-.086-.087a.041.041,0,0,1-.049-.008.042.042,0,0,1,0-.06.043.043,0,0,1,.059,0,.042.042,0,0,1,.007.049l.086.087a.064.064,0,0,1,.023-.009v-.176a.051.051,0,1,1,.025,0v.176a.069.069,0,0,1,.025.011l.086-.087a.042.042,0,1,1,.018.018l-.087.087a.065.065,0,0,1,.009.024h.177a.05.05,0,0,1,.049-.039.051.051,0,0,1,0,.1m.312-.117a.249.249,0,0,0-.357-.227.272.272,0,0,0,0-.028.251.251,0,1,0-.5,0s0,.008,0,.012a.243.243,0,0,0-.1-.021,2.189,2.189,0,0,1-.125.635.252.252,0,0,0,.251.253.248.248,0,0,1,.439.006,2.58,2.58,0,0,1,.389-.629" transform="translate(6419.052 -183.348)" fill="#2c823a"/>
    <path id="Path_3356" data-name="Path 3356" d="M10.475,31.513a.329.329,0,0,1,.042-.057l.006,0c.015-.033.029-.068.043-.1a.28.28,0,0,0-.046-.015.112.112,0,0,0-.036,0,.042.042,0,0,1-.023,0c-.008,0-.009-.012,0-.023a.147.147,0,0,1,.042-.048q.035-.031.047-.025l.014.008a.175.175,0,0,0,.035.023c.007-.02.014-.04.021-.06l-.026-.016a.262.262,0,0,0-.063-.023l-.017-.005c-.005,0-.005-.01,0-.021a.171.171,0,0,1,.048-.056q.042-.038.057-.03l0,.011a.145.145,0,0,0,.027.027l0,0,.022-.076a.235.235,0,0,1,.071-.059q.076-.046.093-.036s.006.006.006.013a.2.2,0,0,0,.028.072.489.489,0,0,1,.063.085.11.11,0,0,1,.025.059.21.21,0,0,1-.005.026l.007,0q.032-.017.045-.01a.1.1,0,0,1,.021.015.029.029,0,0,1,.007.021q-.037.107-.083.218a1.256,1.256,0,0,1-.053.115l-.013.022q.066.051.116.1.04-.1.068-.18t.064-.192a.251.251,0,0,1,.018-.042.1.1,0,0,1,.042-.038.051.051,0,0,1,.052,0c.016.009.022.017.018.026l-.027.05.034-.018c.038-.015.061-.021.07-.016s0,.008,0,.018q-.009.048-.03.139c.025-.013.048-.026.071-.039a1.444,1.444,0,0,0,.266-.214l.013.007s0,.011,0,.028a1.637,1.637,0,0,1-.092.2.1.1,0,0,1-.031.039,1.639,1.639,0,0,1-.3.081.585.585,0,0,0-.085.025l-.038.018-.018.05c.017-.011.03-.014.039-.009l.011.013a1.2,1.2,0,0,0,.123.087c.006-.056.012-.1.019-.145a.081.081,0,0,1,.006-.026s.006,0,.014,0a.064.064,0,0,1,.017.02,1.606,1.606,0,0,0,.041.258.021.021,0,0,1,0,.013.061.061,0,0,1-.047.03l-.038,0a.048.048,0,0,0-.024-.008.119.119,0,0,0-.025-.058.969.969,0,0,0-.14-.085.054.054,0,0,0-.033-.008l-.015.008c.012.013.024.026.033.038a.6.6,0,0,1,.088.162.544.544,0,0,1,.023.173.042.042,0,0,1-.006.021l0,0a.586.586,0,0,0-.052-.129.686.686,0,0,0-.134-.178.837.837,0,0,0-.163-.117.074.074,0,0,0-.047-.013.046.046,0,0,1-.024,0c-.012-.006-.015-.014-.011-.022a.374.374,0,0,1,.051-.066q.064-.131.093-.211a.915.915,0,0,0,.034-.125.057.057,0,0,1,.006-.022h-.018a1.645,1.645,0,0,0-.083.188,1.16,1.16,0,0,1-.046.119l0,0a.025.025,0,0,1,0,.022.046.046,0,0,1-.035.022.055.055,0,0,1-.034,0,.328.328,0,0,1-.1-.024.229.229,0,0,0-.076-.01.068.068,0,0,0-.043.012c-.014-.008-.019-.016-.015-.024m.266-.03.021-.05-.045-.021,0,.008a.056.056,0,0,1-.03.026.039.039,0,0,1-.03,0,.009.009,0,0,1,0-.013c.005-.015.011-.029.017-.043l-.04-.016q-.015.038-.029.067Zm-.034-.217-.034-.021-.021.057.037.018c.007-.018.012-.036.018-.054m.125-.016.01-.035a.115.115,0,0,1,.01-.029.046.046,0,0,1,.009-.012.35.35,0,0,0-.05-.059.226.226,0,0,0-.046-.035c-.019-.01-.032-.009-.04,0s-.014.043-.021.064l.03.025c.021-.037.045-.048.071-.034.007,0,.008.011,0,.021l-.019.057.039.032m-.044.116v0c.005-.013.01-.025.014-.037l-.041-.027-.015.037a.038.038,0,0,1,0,.009l.044.02m.221-.041q.04-.073.092-.045c.005,0,.006.01,0,.02q-.029.089-.062.166t-.035.08a.081.081,0,0,1-.038.035.051.051,0,0,1-.038,0s-.005-.006,0-.012q.042-.112.069-.213a.155.155,0,0,1,.01-.029m.14.148.024-.009c.039-.014.075-.029.108-.045,0-.013-.009-.025-.013-.036a.279.279,0,0,0-.034-.061l-.012-.008q-.041.082-.073.16" transform="translate(6498.961 -176.667)" fill="#2c823a"/>
    <path id="Path_3357" data-name="Path 3357" d="M15.64,23.658a.174.174,0,0,1,.026-.025.249.249,0,0,1,.069-.039.052.052,0,0,1,.048.012.042.042,0,0,1,.013.032.063.063,0,0,1-.013.034.029.029,0,0,1-.022.009.533.533,0,0,1-.111-.01.025.025,0,0,1-.013,0,.009.009,0,0,1,0-.01m.041-.175a.189.189,0,0,1,.061-.049q.047-.031.06-.021l.009.007a.636.636,0,0,0,.1.1l.026-.043a1.327,1.327,0,0,0-.136-.132.093.093,0,0,0-.029-.01.037.037,0,0,1-.016-.006.016.016,0,0,1,0-.025.183.183,0,0,1,.06-.049q.048-.031.061-.021l.008.011a.8.8,0,0,0,.1.145q.047-.079.074-.127a.871.871,0,0,1,.067-.1.252.252,0,0,1,.061-.035q.059-.018.076,0,.036.029,0,.072a.424.424,0,0,1-.032.032.408.408,0,0,0-.039.041q-.052.065-.1.13a.02.02,0,0,1,.021,0,.026.026,0,0,1,0,.013c0,.016,0,.028,0,.035s0,.021,0,.033l.011-.024a.17.17,0,0,1,.022-.036.093.093,0,0,1,.049-.029.051.051,0,0,1,.051.009c.014.012.019.021.013.028a2.063,2.063,0,0,0-.123.17c.016-.005.025-.007.027-.005a.051.051,0,0,1,.016.022l.015-.028a.213.213,0,0,1,.02-.034q.053-.066.1-.028c.006,0,.005.013,0,.025q-.038.065-.075.123l.023.018.058-.1a.6.6,0,0,1,.045-.068.232.232,0,0,1,.054-.03c.033-.012.055-.014.066-.005s.022.038,0,.062a.288.288,0,0,1-.028.028.3.3,0,0,0-.033.034l-.068.087h0a.934.934,0,0,0,.185-.036,1.071,1.071,0,0,0,.243-.119l.011.009s0,.011-.006.023a1.526,1.526,0,0,1-.109.158.068.068,0,0,1-.026.023,1.591,1.591,0,0,1-.25,0,.465.465,0,0,0-.068,0l.175.145c.03.024.045.044.045.06a.054.054,0,0,1-.006.048c-.007.008-.022.012-.047.01a.165.165,0,0,1-.079-.039.147.147,0,0,1-.021-.026.2.2,0,0,0-.03-.039l-.055-.05c0,.023,0,.049.006.076a.716.716,0,0,1-.012.148.769.769,0,0,1-.035.118.408.408,0,0,1-.027.056l-.006.007a.806.806,0,0,0,.009-.126,1.05,1.05,0,0,0,0-.176.58.58,0,0,0-.016-.089l-.021.037q-.019.037-.043.095c0,.006-.005.009,0,.01a.1.1,0,0,1-.057.017.142.142,0,0,1-.054,0s0-.008,0-.012l.032-.05.124-.2-.025-.02q-.044.069-.059.088a.076.076,0,0,1-.044.027.047.047,0,0,1-.036-.008.009.009,0,0,1,0-.013q.045-.071.084-.138a.078.078,0,0,0-.039-.015l-.009,0q-.022.04-.044.086a.133.133,0,0,1-.014.028.074.074,0,0,1-.047.02.06.06,0,0,1-.043,0,0,0,0,0,1,0-.007q.065-.107.109-.189l.037-.07a.3.3,0,0,0-.026-.038.117.117,0,0,0-.018-.02.047.047,0,0,0-.018-.006l-.013.018q-.037.052-.073.113l.029-.011a.054.054,0,0,1,.042.014.04.04,0,0,1,.013.03.06.06,0,0,1-.012.037s-.009,0-.019,0a.339.339,0,0,1-.084-.018q-.015.025-.027.05a1.383,1.383,0,0,0-.063.145c-.006.01-.009.016-.007.017s-.029.015-.066.019a.174.174,0,0,1-.062-.008.008.008,0,0,1,0-.013l.048-.07.132-.216a1.368,1.368,0,0,0-.138-.087l-.025,0a.026.026,0,0,1-.015,0,.016.016,0,0,1,0-.025m.235-.317a.146.146,0,0,1,.064-.03q.05-.014.068,0c.006,0,.007.013,0,.025s-.015.047-.023.077a.358.358,0,0,1-.027.091s0,0-.006,0a.009.009,0,0,1,0-.009.338.338,0,0,0-.027-.071.374.374,0,0,0-.042-.07c-.005-.007-.007-.012,0-.014" transform="translate(6494.48 -169.915)" fill="#2c823a"/>
    <path id="Path_3358" data-name="Path 3358" d="M22.121,16.677a.134.134,0,0,1,.036-.017c.026,0,.043,0,.05.01a.074.074,0,0,1,.015.024.031.031,0,0,1,0,.026l-.069.092,0,0a.262.262,0,0,1,.073-.045c.026-.012.042-.014.049-.006a.047.047,0,0,1,0,.021c0,.022,0,.039,0,.052a.6.6,0,0,1,0,.1l.041-.047.026-.026a.06.06,0,0,1,.091.013c.006.006,0,.021-.029.044a1.5,1.5,0,0,0-.138.153q-.059.072-.143.191l-.014.018a.147.147,0,0,1-.057.012.109.109,0,0,1-.08-.027s0-.006,0-.01q.051-.046.1-.1t.153-.172a.785.785,0,0,0-.037-.088.214.214,0,0,0-.026-.042.114.114,0,0,0-.039-.017s0,0,0-.008c-.016.02-.032.04-.05.059a.7.7,0,0,1-.075.082c-.037.032-.069.043-.1.032a.077.077,0,0,1-.036-.015s0-.008,0-.012a1.762,1.762,0,0,0,.157-.173.675.675,0,0,0,.065-.1.051.051,0,0,1,.014-.02m-.22-.012a.259.259,0,0,1,.07-.04.16.16,0,0,1,.066-.016.052.052,0,0,1,.034.018q.037.042-.012.085c-.012.01-.038.009-.079,0a.214.214,0,0,1-.08-.03.009.009,0,0,1,0-.013m.1.34a.176.176,0,0,1,.03-.02.24.24,0,0,1,.072-.029.051.051,0,0,1,.044.019.054.054,0,0,1,.009.044.082.082,0,0,1-.025.044.022.022,0,0,1-.022,0,.468.468,0,0,1-.1-.041A.022.022,0,0,1,22,17.018a.009.009,0,0,1,0-.012m.15.27a.327.327,0,0,1,.059-.039l.008,0q.038-.046.087-.112a.956.956,0,0,0,.059-.09.033.033,0,0,1,.009-.013A.176.176,0,0,1,22.435,17c.047-.009.074-.009.081,0a.031.031,0,0,1,.007.025.438.438,0,0,0,.018.112l.012,0a.118.118,0,0,1,.054.022.009.009,0,0,1,0,.01,1.494,1.494,0,0,0-.139.139l-.049.055q.025.035,0,.054a.046.046,0,0,1-.041.008.051.051,0,0,1-.031-.013.418.418,0,0,1-.087-.063.264.264,0,0,0-.063-.037.075.075,0,0,0-.043-.009c-.01-.011-.011-.02,0-.026m.215-.911a.3.3,0,0,1,.076-.035c.052-.01.082-.01.091,0a.025.025,0,0,1,0,.03,1.059,1.059,0,0,0-.009.24.04.04,0,0,0,.005.017s.006,0,.012,0a.351.351,0,0,1,.08-.019.356.356,0,0,1,.089,0,.178.178,0,0,1,.067.026.306.306,0,0,1,.055.051.244.244,0,0,1,.035.056.124.124,0,0,1,0,.064.068.068,0,0,1-.018.039.032.032,0,0,1-.024.006q-.105,0-.187.006c-.007,0-.011,0-.012,0s0-.005,0-.007a.636.636,0,0,0,.093-.056q.024-.022.006-.042a.24.24,0,0,0-.1-.059.361.361,0,0,0-.128-.01.022.022,0,0,1-.019-.009.028.028,0,0,1-.005-.009q-.02-.092-.04-.153a.148.148,0,0,0-.023-.042s-.01,0-.017,0a.044.044,0,0,0-.009.013.615.615,0,0,1-.041.061,0,0,0,0,0,0,0,.17.17,0,0,0,.045.074q.253.29.321.379a.919.919,0,0,1,.107.158c.019.046.024.073.014.082s-.033,0-.069-.038q-.025-.012-.484-.538a.191.191,0,0,0-.09-.063s0-.009,0-.014a.356.356,0,0,1,.064-.045l.035-.014a.284.284,0,0,0,.027-.041.3.3,0,0,0,.033-.086.032.032,0,0,1,.011-.021m0,.949.048-.054q.031-.035.053-.063a.679.679,0,0,0-.036-.058.183.183,0,0,0-.019-.027.017.017,0,0,0-.027,0,.532.532,0,0,0-.05.059.869.869,0,0,0-.051.076Z" transform="translate(6489.082 -164.039)" fill="#2c823a"/>
    <path id="Path_3359" data-name="Path 3359" d="M29.185,11.926a.319.319,0,0,1,.064-.028h.008c.03-.021.059-.044.089-.067a.263.263,0,0,0-.032-.036.1.1,0,0,0-.032-.017.043.043,0,0,1-.02-.011c0-.008,0-.015.009-.022a.151.151,0,0,1,.061-.02c.03-.006.048-.006.053,0l.008.014a.171.171,0,0,0,.019.038l.048-.041-.014-.027a.258.258,0,0,0-.043-.051.053.053,0,0,1-.012-.013c0-.005,0-.011.011-.017a.169.169,0,0,1,.069-.024c.037-.008.058-.007.064,0v.012a.151.151,0,0,0,.01.037l0,0L29.6,11.6a.238.238,0,0,1,.091-.016q.088,0,.1.015a.015.015,0,0,1,0,.014.208.208,0,0,0-.012.076.471.471,0,0,1,.012.105.108.108,0,0,1-.008.063.181.181,0,0,1-.018.02h.008c.024,0,.039.006.044.014a.1.1,0,0,1,.01.024.029.029,0,0,1,0,.022q-.086.074-.181.147-.068.052-.1.073l-.022.012c.021.052.038.1.052.142q.085-.066.149-.121t.152-.134a.247.247,0,0,1,.036-.027.1.1,0,0,1,.055-.012.051.051,0,0,1,.045.026c.01.016.01.026,0,.031l-.049.029H30c.041.006.063.013.068.021s0,.009-.008.016q-.032.037-.1.105h.081a1.452,1.452,0,0,0,.337-.052l.008.013s0,.011-.018.022a1.666,1.666,0,0,1-.183.131.1.1,0,0,1-.046.018,1.636,1.636,0,0,1-.3-.078.6.6,0,0,0-.086-.021l-.041,0-.04.034c.02,0,.033,0,.038.012a.085.085,0,0,1,0,.017,1.21,1.21,0,0,0,.062.137q.051-.069.089-.116a.079.079,0,0,1,.018-.019s.006,0,.011.01a.066.066,0,0,1,0,.026,1.618,1.618,0,0,0-.094.244.021.021,0,0,1-.007.011.061.061,0,0,1-.056,0l-.035-.017A.046.046,0,0,0,29.7,12.6a.12.12,0,0,0,.008-.063,1.008,1.008,0,0,0-.079-.144.054.054,0,0,0-.025-.023h-.017c0,.017.007.034.01.05a.594.594,0,0,1-.005.185.548.548,0,0,1-.067.161.043.043,0,0,1-.015.015l0,0a.589.589,0,0,0,.02-.138.685.685,0,0,0-.026-.221.839.839,0,0,0-.082-.183.071.071,0,0,0-.034-.035.046.046,0,0,1-.021-.012c-.007-.011-.006-.019,0-.024a.387.387,0,0,1,.077-.032q.12-.081.187-.135a.93.93,0,0,0,.093-.091.058.058,0,0,1,.017-.015l-.006,0-.01,0a1.632,1.632,0,0,0-.166.12,1.146,1.146,0,0,1-.1.08h0a.025.025,0,0,1-.012.018.045.045,0,0,1-.042,0,.053.053,0,0,1-.028-.018.325.325,0,0,1-.078-.073.225.225,0,0,0-.061-.047.068.068,0,0,0-.044-.012c-.008-.014-.009-.023,0-.028m.245.107L29.473,12l-.029-.041-.008,0a.055.055,0,0,1-.039.007.039.039,0,0,1-.026-.016.009.009,0,0,1,0-.014l.037-.029-.027-.034-.059.044Zm.079-.205-.018-.035-.047.039.023.034.042-.038m.02.128h0l.031-.025-.022-.043-.031.024-.007.006.028.04m.212.075q.071-.043.1.007c0,.005,0,.012-.007.019q-.069.062-.137.112t-.07.052a.08.08,0,0,1-.05.011.052.052,0,0,1-.032-.021s0-.008,0-.012q.092-.076.167-.15a.149.149,0,0,1,.023-.019m-.116-.154.027-.025a.113.113,0,0,1,.023-.019.043.043,0,0,1,.014-.006.348.348,0,0,0-.013-.076.224.224,0,0,0-.022-.053q-.017-.028-.037-.016l-.05.045.014.036c.037-.021.063-.019.079.007,0,.007,0,.014-.007.02l-.045.039.018.048m.162.352.025,0q.061.011.116.015c0-.013.005-.026.007-.038a.279.279,0,0,0,0-.07.072.072,0,0,1-.006-.013q-.077.05-.143.1" transform="translate(6482.771 -159.946)" fill="#2c823a"/>
    <path id="Path_3360" data-name="Path 3360" d="M37.293,7.626a.121.121,0,0,1,.043,0q.04.011.047.028a.076.076,0,0,1,.006.028.031.031,0,0,1-.011.024c-.023.021-.047.042-.07.06.008.023.016.045.024.066l0,.007a.239.239,0,0,1,.081.006.076.076,0,0,1,.038.045.04.04,0,0,1,0,.032.063.063,0,0,1-.029.025A.028.028,0,0,1,37.4,7.94a.2.2,0,0,1-.03-.021l.122.319a.092.092,0,0,1,0,.063c0,.025-.009.04-.024.047s-.038,0-.061-.025a.136.136,0,0,1-.042-.06q-.014-.081-.036-.169a1.031,1.031,0,0,0-.049-.171,1.042,1.042,0,0,1-.024.109.485.485,0,0,1-.062.144.44.44,0,0,1-.091.1l0-.009a.616.616,0,0,0,.028-.064.909.909,0,0,0,.042-.149,1.04,1.04,0,0,0,.024-.206.329.329,0,0,1-.058.032.1.1,0,0,1-.108-.006.087.087,0,0,1-.03-.031s0-.005.007-.008a1.106,1.106,0,0,0,.193-.113l.006,0a1.615,1.615,0,0,0-.094-.214.317.317,0,0,0-.063-.068c0-.008,0-.014.008-.017a.23.23,0,0,1,.1-.013c.037,0,.059.01.065.026a.067.067,0,0,1,0,.028q.025.1.052.184l0-.008a.039.039,0,0,1,.018-.015m.5-.2a.167.167,0,0,1,.079-.007q.059.015.07.044a.038.038,0,0,1,0,.027.039.039,0,0,1-.022.023q-.08.031-.146.061.1.254.185.431a.211.211,0,0,1,.007.123q-.014.05-.033.057a.045.045,0,0,1-.053-.008.628.628,0,0,0-.176-.069.016.016,0,0,1,.011-.024.6.6,0,0,0,.092-.02c.007,0,.009-.012.005-.028a1.022,1.022,0,0,0-.042-.146q-.042-.13-.095-.269l-.028.016a.947.947,0,0,0-.151.106.021.021,0,0,1-.01.006q-.015.006-.057-.017c-.024-.012-.037-.023-.04-.031s0-.01.006-.012l.1-.064q.04-.023.1-.059l.049-.032q-.034-.085-.064-.147a.346.346,0,0,0-.074-.108.028.028,0,0,1-.009-.01c0-.011,0-.019.02-.026a.323.323,0,0,1,.118-.015q.059,0,.069.022a.028.028,0,0,1,0,.015.378.378,0,0,0,.014.136c.006.022.012.043.019.062a.232.232,0,0,1,.061-.036M37.5,7.8a.155.155,0,0,1,.041-.008.248.248,0,0,1,.1.006.073.073,0,0,1,.044.048.048.048,0,0,1-.007.041.077.077,0,0,1-.036.03.031.031,0,0,1-.029-.006.637.637,0,0,1-.1-.087.028.028,0,0,1-.011-.01c0-.006,0-.01.005-.012" transform="translate(6476.018 -156.178)" fill="#2c823a"/>
    <path id="Path_3361" data-name="Path 3361" d="M45.816,5.123a.345.345,0,0,1,.073.011.256.256,0,0,1,.042.017.022.022,0,0,1,0-.007q0-.018.06-.03a.049.049,0,0,1,.028,0c0-.014.008-.028.011-.042A.625.625,0,0,0,46.039,5c0-.013,0-.019,0-.02A.118.118,0,0,1,46.092,5c.03.016.046.029.047.037a.016.016,0,0,1-.008.016,1.035,1.035,0,0,1-.091.081l0,0q.047.037.094.07a.82.82,0,0,0,.041-.072.343.343,0,0,0,.037-.1c0-.015,0-.022,0-.023a.143.143,0,0,1,.062.018c.037.02.056.034.058.043s0,.015-.013.023q-.054.044-.17.123l.08.054a.765.765,0,0,0,.129.064,1.175,1.175,0,0,0,.222.043c.007,0,.011.01.014.022s-.005.013-.019.015a1.559,1.559,0,0,1-.182.045.227.227,0,0,1-.079.006,1.057,1.057,0,0,1-.106-.085l0,.006a.063.063,0,0,0-.023.034.072.072,0,0,0,0,.029.1.1,0,0,0,.01.032c0,.008.013.01.026.008a.044.044,0,0,0,.019-.013c0-.006.006-.009.01-.01a.1.1,0,0,1,.044.007c.021.009.032.021.035.033s-.005.015-.018.03a.171.171,0,0,1-.07.031.142.142,0,0,1-.092,0,.069.069,0,0,1-.033-.036.282.282,0,0,1-.017-.058.053.053,0,0,1,0-.016.091.091,0,0,0,0-.015c0-.013-.008-.018-.017-.017a.056.056,0,0,1-.026.018c.006.037.01.069.012.093a.2.2,0,0,1-.007.07.153.153,0,0,1-.043.06.09.09,0,0,1-.029.017.206.206,0,0,0,.006-.035.39.39,0,0,0,0-.062.866.866,0,0,0-.017-.118.113.113,0,0,0-.013-.036.04.04,0,0,0-.023-.019l0,0c0-.006.006-.011.022-.014a.2.2,0,0,1,.074,0,.052.052,0,0,0,.014-.01.157.157,0,0,0,.028-.031.008.008,0,0,1,.006,0,.277.277,0,0,1,.067,0,.169.169,0,0,1,.039.008l-.024-.024a1.7,1.7,0,0,0-.134-.126.159.159,0,0,0-.067-.036l-.015,0h0c0,.005,0,.013-.012.022a.235.235,0,0,0-.043.076q-.04.1-.077.178a.08.08,0,0,0,.022-.022c.006-.008.011-.013.015-.014a.18.18,0,0,1,.057.009q.052.018.054.031a.017.017,0,0,1,0,.013.219.219,0,0,0-.032.066.247.247,0,0,0-.006.047.081.081,0,0,1,.024.033s0,.005,0,.005a.369.369,0,0,0-.088.029.266.266,0,0,1-.045.019h0a.129.129,0,0,0,0,.03.071.071,0,0,0,0,.018s.005,0,.015,0l.052-.024a.21.21,0,0,1,.06,0q.053.018.056.035a.152.152,0,0,0-.022.075.428.428,0,0,1-.014.206q-.037.05-.056.053c-.008,0-.016,0-.024-.014a.323.323,0,0,0-.083-.074.03.03,0,0,1-.013-.017c0-.005,0-.008,0-.009a.312.312,0,0,0,.057,0c.027-.005.042-.031.045-.077a.321.321,0,0,0-.005-.082c0-.024-.013-.035-.025-.033a.1.1,0,0,0-.045.017.088.088,0,0,0-.028.034.079.079,0,0,1-.022.034.067.067,0,0,1-.024.01.03.03,0,0,1-.03-.011.113.113,0,0,1-.017-.038.036.036,0,0,1,.006-.018c.006,0,.011-.013.015-.029a.181.181,0,0,0,.018-.073.14.14,0,0,0,0-.053.035.035,0,0,0-.012-.019l0,0a.6.6,0,0,1-.09.086.3.3,0,0,1-.085.057s0,0-.005,0a2,2,0,0,0,.175-.257l.021-.043-.012,0a.031.031,0,0,1-.025-.009.353.353,0,0,1-.082-.073c-.006,0-.009-.008-.009-.01a0,0,0,0,1,0-.005.16.16,0,0,1,.036,0,.283.283,0,0,1,.082.016.053.053,0,0,1,.026.03,1.1,1.1,0,0,0,.047-.164l0-.022c0-.01-.006-.015-.013-.017a.707.707,0,0,1-.1.042.051.051,0,0,1-.028,0,.026.026,0,0,1-.019-.019.01.01,0,0,1,.007-.012.533.533,0,0,0,.151-.083l.017-.006m-.093.476a.332.332,0,0,1,.055,0l.036,0,.015-.008a.171.171,0,0,0,.028-.015.3.3,0,0,0,0-.084c0-.005-.006-.007-.015-.005a.033.033,0,0,0-.012.008.041.041,0,0,1-.018.011A.04.04,0,0,1,45.79,5.5l-.024.036a.538.538,0,0,1-.044.059m.479.008a.156.156,0,0,1,.07.016c.043.015.066.031.069.047a.01.01,0,0,1-.007.012.194.194,0,0,0-.041.055.666.666,0,0,1-.031.071l.071.017a.194.194,0,0,1,.093.061.156.156,0,0,1,.023.046c0,.025,0,.04-.025.044s-.054,0-.063-.008a1.006,1.006,0,0,1-.13-.07l-.02-.013a.47.47,0,0,1-.092.085.271.271,0,0,1-.107.045c-.012,0-.019,0-.02,0s0,0,.012-.008a.48.48,0,0,0,.076-.057.334.334,0,0,0,.075-.095q-.063-.034-.12-.058-.014,0-.015-.006c0-.006,0-.01.012-.012.054,0,.1.01.147.017A.813.813,0,0,0,46.2,5.7c0-.009-.006-.013-.012-.012a.824.824,0,0,1-.115.041.081.081,0,0,1-.035,0c-.015,0-.024-.006-.026-.016s0-.011.007-.012a.826.826,0,0,0,.186-.092" transform="translate(6468.634 -154.234)" fill="#2c823a"/>
    <path id="Path_3362" data-name="Path 3362" d="M55,4.222a.238.238,0,0,1,.089.028c.049.027.074.048.074.062s0,.006-.01.008a.117.117,0,0,0-.043.025.135.135,0,0,0-.043.061l0,0a.1.1,0,0,1,.021.043.013.013,0,0,1-.014.009l-.079,0,.015.007q.055.017.055.032l0,.016a.284.284,0,0,0-.011.03h.007a.094.094,0,0,1,.053.019.052.052,0,0,1,.026.046q0,.027-.014.027l-.1,0L55,4.735l.045-.011a.437.437,0,0,1,.089-.011.151.151,0,0,1,.065.017c.028.02.042.038.042.055a.034.034,0,0,1-.009.02.032.032,0,0,1-.023.014l-.11,0a.308.308,0,0,1,.04.023q.039.028.039.048c0,.008-.008.014-.023.019a.651.651,0,0,0-.093.03l-.061.024a.72.72,0,0,0,.105.069,1.215,1.215,0,0,0,.3.081.017.017,0,0,1,0,.013c0,.008-.01.013-.031.015q-.212.047-.237.047a.053.053,0,0,1-.036-.012,1.169,1.169,0,0,1-.159-.141q-.108-.119-.181-.188l-.019,0c.014.009.021.018.021.027a.2.2,0,0,1,0,.023c-.007.078-.011.152-.012.221q.069-.039.122-.066a.078.078,0,0,1,.024-.007s0,.005,0,.015a.063.063,0,0,1-.009.022,1.667,1.667,0,0,0-.191.185.019.019,0,0,1-.012.007.061.061,0,0,1-.049-.026l-.021-.032a.047.047,0,0,0,0-.024.167.167,0,0,0,.034-.071,1.886,1.886,0,0,0,.005-.231.06.06,0,0,0,0-.021l-.02,0-.014,0c-.009,0-.024-.01-.043-.031l0-.007a.985.985,0,0,1-.087.169.7.7,0,0,1-.163.163.045.045,0,0,1-.024.006v0A.835.835,0,0,0,54.4,5a1.245,1.245,0,0,0,.106-.32,1.726,1.726,0,0,0,.026-.313.1.1,0,0,0-.012-.056.059.059,0,0,1-.012-.024c0-.015,0-.023.014-.023a.465.465,0,0,1,.1.017.119.119,0,0,1,.029.007,1.447,1.447,0,0,0,.158-.02,1,1,0,0,0,.14-.04A.132.132,0,0,1,55,4.222m-.407.579.12-.018.036,0c0-.034,0-.064,0-.091h-.006l-.029.007a.08.08,0,0,1-.047-.024q-.024-.022-.024-.036a0,0,0,0,1,0,0l.1-.016a.406.406,0,0,0-.006-.059.152.152,0,0,0-.016-.028.04.04,0,0,1-.009-.018c0-.009.006-.014.018-.014a.146.146,0,0,1,.063.013c.03.01.044.019.044.027s0,.01,0,.015a.281.281,0,0,0-.009.048l.02,0,.083-.018a.419.419,0,0,0,0-.055.138.138,0,0,0-.012-.032.045.045,0,0,1-.006-.019v0q-.063.006-.125.016-.1.017-.132.02a2.06,2.06,0,0,1-.052.264l-.011.031m.082-.454a.029.029,0,0,0,0,.008c0,.027,0,.054-.007.08.034,0,.076-.01.126-.02a1.17,1.17,0,0,0,.176-.033.094.094,0,0,0,.006-.014.08.08,0,0,0,.009-.031c0-.025-.006-.037-.019-.037a1.214,1.214,0,0,0-.159.023l-.13.023m.149.422.025,0,.058-.011q.008-.057.013-.1l-.063.01-.034.006c0,.028,0,.061,0,.1m.014.068.123.092.019.016a.244.244,0,0,0,.041-.043.3.3,0,0,0,.048-.076l0,0q-.124,0-.218.015h-.016" transform="translate(6461.049 -153.577)" fill="#2c823a"/>
    <path id="Path_3363" data-name="Path 3363" d="M63.854,5.73a.243.243,0,0,1,.068.037q.077.054.074.075s0,.006-.011.01a.119.119,0,0,0-.04.043q-.03.053-.065.1a.272.272,0,0,1,.072.04c.042.038.062.066.059.084a.054.054,0,0,1-.033.037.218.218,0,0,0-.066.052,1.2,1.2,0,0,1-.127.137l.038.038a1.564,1.564,0,0,0,.32.219l0,.018s-.011.006-.03.006a1.864,1.864,0,0,1-.24-.021.108.108,0,0,1-.052-.018,1.283,1.283,0,0,1-.115-.175.637.637,0,0,1-.208.1.618.618,0,0,1-.247.014c-.035-.006-.053-.012-.053-.018l0-.011a.883.883,0,0,0,.248-.064.829.829,0,0,0,.2-.126l-.019-.04q-.022-.039-.058-.091a.289.289,0,0,0-.06-.059h0c-.02.028-.039.052-.055.072a.691.691,0,0,1-.184.151,1.214,1.214,0,0,1-.115.044l-.049.006s-.006,0-.005-.006a1.027,1.027,0,0,0,.144-.09.939.939,0,0,0,.142-.159.9.9,0,0,0,.112-.191.38.38,0,0,0,.033-.1.053.053,0,0,0,0-.034s0-.009,0-.013h-.122a.043.043,0,0,1-.031-.026.128.128,0,0,1-.01-.037.012.012,0,0,1,.015-.007,2.992,2.992,0,0,0,.452,0,.055.055,0,0,1,.022,0m-.327.362.009,0a.146.146,0,0,1,.045.019.234.234,0,0,1,.066.066c.019.028.039.054.059.079a.794.794,0,0,0,.114-.138.091.091,0,0,0,.018-.033c0-.007,0-.011-.017-.013q-.222,0-.24,0a.081.081,0,0,1-.031-.017l-.024.037M63.6,5.8l.035.019c.033.02.048.037.046.051a.026.026,0,0,1-.014.017.122.122,0,0,0-.028.034l-.053.088a1.14,1.14,0,0,0,.122.006l.04,0a.049.049,0,0,1,0-.009.017.017,0,0,1,.006-.009.083.083,0,0,0,.011-.019.6.6,0,0,0,.036-.1.269.269,0,0,0,.012-.046c0-.013-.006-.021-.024-.024A.736.736,0,0,0,63.7,5.8h-.1" transform="translate(6453.445 -154.879)" fill="#2c823a"/>
    <path id="Path_3364" data-name="Path 3364" d="M72.055,7.68l.011.006L72.1,7.7a.646.646,0,0,0,.076.017.3.3,0,0,0,.1,0,.029.029,0,0,1,.018,0,.122.122,0,0,1,.058.048.087.087,0,0,1,.022.074c0,.007-.012.013-.027.016a.21.21,0,0,0-.06.037.779.779,0,0,1-.178.127.507.507,0,0,1-.245.05c-.009,0-.012-.006-.011-.01a1.3,1.3,0,0,0,.208-.108,1.134,1.134,0,0,0,.168-.159s0-.006-.008-.008q-.117,0-.122,0a.113.113,0,0,1-.049-.047.062.062,0,0,1-.012-.045c0-.012.009-.017.015-.014m.457-.222a.327.327,0,0,1,.1.065c.031.022.043.043.036.061a.025.025,0,0,1-.01.01.349.349,0,0,0-.076.107,1.281,1.281,0,0,0-.06.141l.032.08a.372.372,0,0,0,.052-.027.429.429,0,0,0,.1-.067.1.1,0,0,0,.031-.032.032.032,0,0,0,0-.016.062.062,0,0,1,0-.019.025.025,0,0,1,.035-.017.385.385,0,0,1,.088.057q.057.061.05.081c0,.007-.013.011-.032.01a.419.419,0,0,0-.079.012,1.656,1.656,0,0,1-.238.041,1.515,1.515,0,0,0,.1.2.893.893,0,0,0,.2.2c.012.007.017.013.015.019s-.011.012-.023.009a.337.337,0,0,1-.07-.011A1.139,1.139,0,0,1,72.6,8.31a.081.081,0,0,1-.047-.047,1.4,1.4,0,0,1-.059-.188c-.011-.046-.02-.088-.028-.124q-.062.183-.1.325a.217.217,0,0,1-.076.1c-.027.018-.047.025-.06.021a.048.048,0,0,1-.037-.042.687.687,0,0,0-.092-.175.015.015,0,0,1,.022-.011.476.476,0,0,0,.089.055c.009,0,.018,0,.025-.015a.626.626,0,0,0,.063-.128q.062-.144.12-.308.033-.1.052-.167a.3.3,0,0,0,.011-.125.03.03,0,0,1,0-.012c0-.011.015-.013.032-.007" transform="translate(6445.873 -156.373)" fill="#2c823a"/>
    <path id="Path_3365" data-name="Path 3365" d="M80.917,11.844a.171.171,0,0,1,.036.035q.021.043.011.061a.1.1,0,0,1-.023.028.043.043,0,0,1-.032.011q-.11-.041-.224-.089l-.124.207q.111.049.173.073t.1.05a.313.313,0,0,1,.052.064q.03.064.018.086c-.017.03-.045.035-.082.013a.3.3,0,0,1-.04-.032.363.363,0,0,0-.053-.038q-.124-.07-.247-.133a2.174,2.174,0,0,0-.215-.1q-.055-.021-.138-.046c-.009,0-.014-.006-.015,0s-.022-.03-.033-.071a.192.192,0,0,1,0-.072.008.008,0,0,1,.013,0l.074.035q.158.072.278.123l.117-.209a1.42,1.42,0,0,1-.133-.063q-.076-.043-.076-.1a.1.1,0,0,1,0-.048s.007-.006.012,0q.143.073.247.117l.027-.048a1.4,1.4,0,0,0,.086-.178.143.143,0,0,0,.016-.08.053.053,0,0,1,0-.012c.006-.011.019-.011.037,0a.349.349,0,0,1,.087.073q.039.054.028.072a.04.04,0,0,1-.014.013.717.717,0,0,0-.086.112l-.058.1a1.311,1.311,0,0,0,.138.039.113.113,0,0,1,.036.012" transform="translate(6438.765 -159.798)" fill="#2c823a"/>
    <path id="Path_3366" data-name="Path 3366" d="M88.177,15.747a.219.219,0,0,1,.053.077c.014.03.016.051.007.062a.047.047,0,0,1-.032.014.052.052,0,0,0-.034,0,2.069,2.069,0,0,1-.221.079q.025.064.013.079a.089.089,0,0,1-.027.018l-.029.021-.248.307a.11.11,0,0,1-.05.032c-.029.012-.047.014-.055.008s-.015-.046,0-.1a.084.084,0,0,1,.014-.032q.022-.026.146-.138a1.645,1.645,0,0,0,.133-.149.279.279,0,0,0,.02-.028.851.851,0,0,1-.195.014.131.131,0,0,1-.058-.009s0-.005,0-.009a2.072,2.072,0,0,0,.282-.086,1.24,1.24,0,0,0,.175-.1.387.387,0,0,0,.062-.053l.018-.022s.01,0,.019.006m.062.158a.309.309,0,0,1,.044.047.272.272,0,0,0,.035.021q.1.053.158.091a.219.219,0,0,0,.064.03l.012.008a.509.509,0,0,1,.04.079c.021.05.028.079.021.087a.028.028,0,0,1-.02.008.136.136,0,0,0-.067.01.431.431,0,0,0-.089.042h0a.08.08,0,0,1-.011.037.009.009,0,0,1-.01,0,1.45,1.45,0,0,0-.124-.092c.011.027.012.046,0,.058a.038.038,0,0,1-.016.01l-.033.025q.1.06.158.095l.012.007a.163.163,0,0,1,.043.068.088.088,0,0,1-.011.075c-.015.018-.03.022-.044.01s-.037-.034-.07-.067a.43.43,0,0,0-.05-.051l-.069-.055a.021.021,0,0,1,0,.006.884.884,0,0,0,.015.191.939.939,0,0,0,.09.244l-.008.01s-.01,0-.022-.008a1.4,1.4,0,0,1-.157-.11.042.042,0,0,1-.018-.025,1.407,1.407,0,0,1,.038-.255l.007-.053c-.018.018-.034.035-.047.051l-.163.2a.1.1,0,0,1-.057.029.046.046,0,0,1-.052,0c-.014-.012-.017-.034-.007-.066a.129.129,0,0,1,.031-.065.7.7,0,0,0,.081-.056.473.473,0,0,0,.1-.092.606.606,0,0,1-.088.012.455.455,0,0,1-.137-.009.573.573,0,0,1-.125-.045l.006-.007a.309.309,0,0,0,.063,0,.753.753,0,0,0,.133-.009.765.765,0,0,0,.166-.04l.016,0a1.1,1.1,0,0,0-.111-.062.1.1,0,0,1-.029-.016.091.091,0,0,1-.027-.063.1.1,0,0,1,.006-.051.008.008,0,0,1,.013,0q.048.04.217.149l.007,0a.326.326,0,0,0,.043-.064.2.2,0,0,0,.007-.027l-.023-.016,0,0a.023.023,0,0,1-.021-.005.044.044,0,0,1-.014-.039.054.054,0,0,1,.008-.033.311.311,0,0,1,.042-.093.23.23,0,0,0,.025-.068.074.074,0,0,0,0-.043c.01-.012.018-.015.025-.009m-.013.24.07.043a.9.9,0,0,0,.086.05l.037-.025a.293.293,0,0,0,.049-.047q.014-.017-.01-.039a.489.489,0,0,0-.061-.041.768.768,0,0,0-.107-.057Z" transform="translate(6432.31 -163.535)" fill="#2c823a"/>
    <path id="Path_3367" data-name="Path 3367" d="M94.445,22.136a.112.112,0,0,1,.016.032c0,.024,0,.04-.008.046a.088.088,0,0,1-.022.014.029.029,0,0,1-.022,0c-.023-.016-.047-.032-.07-.05l-.058.05a.1.1,0,0,1,.038.016.016.016,0,0,1,0,.026.035.035,0,0,1-.022,0l-.061,0q-.136.116-.24.209a.186.186,0,0,1-.1.041c-.03,0-.049,0-.057-.011a.039.039,0,0,1-.006-.047.643.643,0,0,0,.014-.167c.006-.006.014,0,.022.006a.334.334,0,0,0,.035.068q.01.012.03,0a.737.737,0,0,0,.12-.079l.048-.036-.014,0q-.075-.011-.184-.017c-.011,0-.018,0-.022,0s-.008-.03,0-.066a.136.136,0,0,1,.028-.06c.007-.006.013-.007.017,0a.125.125,0,0,0,.045.026q.07.029.2.071l.1-.079a.507.507,0,0,1-.058-.054.1.1,0,0,1-.031-.088.073.073,0,0,1,.014-.032.008.008,0,0,1,.012,0,1.3,1.3,0,0,0,.127.117q.064-.056.111-.1a.3.3,0,0,0,.072-.1.029.029,0,0,1,.007-.01c.01-.009.021-.006.033.008a.26.26,0,0,1,.044.092q.019.043,0,.061a.022.022,0,0,1-.012,0,.407.407,0,0,0-.115.058l-.055.042.015.007a.04.04,0,0,1,.016.011m.386.287a.114.114,0,0,1,.015.034c0,.024,0,.039-.009.045a.072.072,0,0,1-.022.013.025.025,0,0,1-.021,0q-.048-.034-.1-.072l-.086.065a.879.879,0,0,0,.086.06.336.336,0,0,1,.063.056.149.149,0,0,1,.029.061.083.083,0,0,1-.017.069.037.037,0,0,1-.022,0,.028.028,0,0,1-.023-.009q-.06-.071-.113-.128a.036.036,0,0,1-.01.025.016.016,0,0,1-.012,0,.158.158,0,0,0-.026.014l.022.017a.15.15,0,0,1,.034.029.113.113,0,0,1,.023.06.055.055,0,0,1-.019.053q-.029.025-.041.011-.047-.056-.1-.107-.093.082-.185.176a.169.169,0,0,1-.1.034q-.058,0-.074-.018a.051.051,0,0,1-.006-.054.594.594,0,0,0,.009-.167c.007-.006.014,0,.022.006a.365.365,0,0,0,.046.089c.009.011.025.008.048-.007s.088-.066.157-.125l.011-.009-.041-.038a1.124,1.124,0,0,0-.111-.087.154.154,0,0,1-.028-.02.082.082,0,0,1-.009-.058.063.063,0,0,1,.015-.045s.006,0,.01,0q.1.09.18.153l.044.036.028-.028c.012-.012.022-.023.03-.033l-.032-.029a1.348,1.348,0,0,0-.165-.124.016.016,0,0,1-.01-.007c-.006-.008-.007-.026,0-.054a.086.086,0,0,1,.014-.043s.006,0,.01,0q.065.053.1.088l.079.068.085-.07a.419.419,0,0,1-.039-.038.094.094,0,0,1-.03-.089.067.067,0,0,1,.013-.031s.008,0,.012,0q.061.063.109.1a1,1,0,0,0,.107-.1.207.207,0,0,0,.019-.042.055.055,0,0,1,.013-.026c.014-.012.025-.012.035,0a.193.193,0,0,1,.041.082q.025.062.009.076l-.018.013a.528.528,0,0,0-.109.067l.041.021a.043.043,0,0,1,.018.012m-.6.116a.157.157,0,0,1,.02.032.226.226,0,0,1,.027.078.057.057,0,0,1-.023.047.039.039,0,0,1-.033.007.054.054,0,0,1-.032-.017.032.032,0,0,1,0-.028.522.522,0,0,1,.031-.11.028.028,0,0,1,.005-.012.009.009,0,0,1,.01,0" transform="translate(6426.878 -168.816)" fill="#2c823a"/>
    <path id="Path_3368" data-name="Path 3368" d="M99.283,29.259a.35.35,0,0,1,.031.076.01.01,0,0,0,0,0,.443.443,0,0,0,.04.057q.116.148.184.248a.593.593,0,0,0,.074.092.164.164,0,0,1,.014.02.483.483,0,0,1,.009.087q.006.081-.009.09a.028.028,0,0,1-.022,0,.173.173,0,0,0-.076-.022.565.565,0,0,0-.11.005.141.141,0,0,1-.049-.057c-.011-.018-.012-.031,0-.039q-.057-.093-.121-.179a.182.182,0,0,1,0,.028c.008.037.008.058,0,.063l-.013.005-.026.006.019.019a.041.041,0,0,1,.013.013.115.115,0,0,1,.009.036c0,.023-.007.038-.016.043a.058.058,0,0,1-.023.008l-.007,0,.043.006a.121.121,0,0,0,.069-.015l.015-.02s.01,0,.016.012a.173.173,0,0,1,.017.088c0,.036-.009.058-.022.065s-.014,0-.026-.008a.074.074,0,0,0-.038-.015l-.08-.018q.062.078.11.132l.013.018a.187.187,0,0,1,.02.092.107.107,0,0,1-.044.079c-.024.014-.042.012-.053-.008s-.027-.052-.049-.1a.455.455,0,0,0-.034-.077q-.056-.1-.105-.173l-.082-.028.026.029a.2.2,0,0,0,.044.033.027.027,0,0,1,.01.009.237.237,0,0,1,.018.07c0,.045,0,.072-.018.08h-.006a.239.239,0,0,0-.1.041.762.762,0,0,0-.06.05.406.406,0,0,1-.053.043.164.164,0,0,1-.084.01c-.042-.008-.067-.02-.076-.035l.038-.072q-.033-.054-.07-.106t-.052-.075h0a.043.043,0,0,1-.039-.019.045.045,0,0,1,.007-.05.133.133,0,0,1,.044-.039l.013-.006a.75.75,0,0,0,.077-.034c.015-.007.032-.016.052-.028a1.163,1.163,0,0,1-.119-.068,1.178,1.178,0,0,1-.155-.12.242.242,0,0,1-.035-.039s0,0,0-.006q.1.062.232.129.076.034.144.061l.006-.006a.2.2,0,0,1,.029-.026.012.012,0,0,1,.019.005.162.162,0,0,1,.023.055,0,0,0,0,1,0,0l.1.032q-.02-.03-.039-.055a1.84,1.84,0,0,0-.168-.2.161.161,0,0,1-.037-.043.11.11,0,0,1,0-.08.127.127,0,0,1,.028-.051c.005,0,.009,0,.012,0q.05.085.239.335l.049-.029-.016-.024a.091.091,0,0,1-.013-.092.063.063,0,0,1,.018-.029s.009,0,.012,0q.038.058.07.1a.383.383,0,0,0,.042-.029.1.1,0,0,0,.016-.024.028.028,0,0,1,.009-.015l0,0q-.031-.042-.045-.063a.035.035,0,0,1-.027-.019.055.055,0,0,1,0-.048.06.06,0,0,1,.02-.032.266.266,0,0,1,.057-.07.147.147,0,0,0,.035-.054.07.07,0,0,0,.009-.043c.016-.009.027-.009.033,0m-.629.686.038.051a.906.906,0,0,0,.066.079.1.1,0,0,1,.012.016.064.064,0,0,1,.01.035h0a.383.383,0,0,0,.083-.04.791.791,0,0,0,.1-.075c.005,0,0-.012,0-.025a.449.449,0,0,0-.035-.048.905.905,0,0,0-.088-.092l-.016.009-.031.017q.034.035.066.065a.057.057,0,0,1,.011.012q.051.088-.014.126s-.007,0-.012,0q-.039-.044-.07-.085a.494.494,0,0,1-.032-.043.1.1,0,0,1-.012-.035l-.037.019-.038.02m.45-.1c.033.008.062.013.088.017l-.005,0q-.032-.039-.064-.081l-.051.025.032.042m.107-.343q.017.027.042.06a.165.165,0,0,1,.034-.029.2.2,0,0,1,.026-.018l.034-.028h0q-.026-.036-.055-.071Zm.08.111v0l.043.059.067-.028.033-.017a.036.036,0,0,0,.009-.013l-.065-.09a.224.224,0,0,1-.024.046.089.089,0,0,1-.03.029.084.084,0,0,1-.034.011m.073.1q.022.029.041.05a.194.194,0,0,1,.021.028.048.048,0,0,1,.007.028l.024,0a.191.191,0,0,0,.072-.025c.012-.007.013-.02,0-.04s-.019-.031-.031-.049c0,.012,0,.019-.006.022a.035.035,0,0,1-.017,0l-.038,0a.554.554,0,0,1-.076-.009" transform="translate(6422.896 -175.218)" fill="#2c823a"/>
    <path id="Path_3369" data-name="Path 3369" d="M6.615,50.119l.043-.281.04.006a.189.189,0,0,0,0,.053.023.023,0,0,0,.022.02.077.077,0,0,0,.028,0l.075-.017.03-.193-.036-.02a.157.157,0,0,0-.045-.019.032.032,0,0,0-.037.015.146.146,0,0,0-.014.047l-.04-.006.031-.205.04.006a.09.09,0,0,0,0,.043.093.093,0,0,0,.03.038.466.466,0,0,0,.068.045l.424.241-.006.042-.492.111c-.035.008-.058.014-.071.019a.066.066,0,0,0-.031.021.094.094,0,0,0-.017.044Zm.25-.23.221-.05-.2-.11Z" transform="translate(6502.281 -192.738)" fill="#003a84"/>
    <path id="Path_3370" data-name="Path 3370" d="M5.422,54.313A.037.037,0,0,1,5.4,54.3a.026.026,0,0,1-.008-.021.045.045,0,0,1,.014-.027l.006-.007.007-.008a.013.013,0,0,0,0-.007.03.03,0,0,0-.007-.022.206.206,0,0,1-.038.02.1.1,0,0,1-.044,0,.1.1,0,0,1-.058-.021.107.107,0,0,1-.033-.046.232.232,0,0,1-.014-.055c0-.019,0-.042-.006-.071q0-.106-.034-.108c-.009,0-.015,0-.019.014A.172.172,0,0,0,5.156,54l-.005.067a.571.571,0,0,1-.008.062.242.242,0,0,1-.02.059.126.126,0,0,1-.043.049.107.107,0,0,1-.072.016.126.126,0,0,1-.064-.025.152.152,0,0,1-.05-.075.335.335,0,0,1-.012-.138.514.514,0,0,1,.028-.131A.078.078,0,0,1,5,53.821a.066.066,0,0,1,.038.016.044.044,0,0,1,.014.04.061.061,0,0,1-.011.033A.06.06,0,0,0,5,53.9a.061.061,0,0,0-.053.03.193.193,0,0,0-.03.1.246.246,0,0,0,.011.11.059.059,0,0,0,.049.044.039.039,0,0,0,.036-.014.106.106,0,0,0,.019-.048q.006-.031.012-.1a.406.406,0,0,1,.028-.126.069.069,0,0,1,.075-.041.073.073,0,0,1,.064.04.281.281,0,0,1,.025.088q.032-.117.121-.11a.125.125,0,0,1,.106.081.232.232,0,0,1,.013.111.2.2,0,0,1-.052.131.084.084,0,0,1,.034.074.05.05,0,0,1-.014.034.035.035,0,0,1-.028.01m-.078-.189a.125.125,0,0,0,.067-.012.057.057,0,0,0,.032-.05A.059.059,0,0,0,5.421,54a.117.117,0,0,0-.061-.021.152.152,0,0,0-.068.009.057.057,0,0,0-.035.054.062.062,0,0,0,.02.052.106.106,0,0,0,.066.025" transform="translate(6503.78 -196.461)" fill="#003a84"/>
    <path id="Path_3371" data-name="Path 3371" d="M6.463,57.4l.006-.273-.036,0a.207.207,0,0,0-.057.011.105.105,0,0,0-.05.035.109.109,0,0,0-.021.068.171.171,0,0,0,.011.057.122.122,0,0,0,.045.059l-.024.034a.182.182,0,0,1-.08-.169.282.282,0,0,1,.017-.093.21.21,0,0,1,.043-.07.18.18,0,0,1,.063-.043A.189.189,0,0,1,6.456,57a.2.2,0,0,1,.1.028.19.19,0,0,1,.071.076.222.222,0,0,1,.025.111.192.192,0,0,1-.029.1.163.163,0,0,1-.069.06.2.2,0,0,1-.089.018m.043-.109q.1,0,.1-.078a.07.07,0,0,0-.027-.06.132.132,0,0,0-.073-.025Z" transform="translate(6502.59 -199.21)" fill="#003a84"/>
    <path id="Path_3372" data-name="Path 3372" d="M6.344,60.259l-.009-.23.041,0a.076.076,0,0,0,.008.037.029.029,0,0,0,.021.013.244.244,0,0,0,.044,0l.126,0a.137.137,0,0,0,.059-.013.046.046,0,0,0,.02-.046.077.077,0,0,0-.039-.068.149.149,0,0,0-.083-.02l-.1,0a.081.081,0,0,0-.048.012.055.055,0,0,0-.011.044l-.041,0-.009-.235.041,0a.133.133,0,0,0,.007.043.029.029,0,0,0,.019.017.136.136,0,0,0,.042,0l.144-.006a.051.051,0,0,0,.04-.014.1.1,0,0,0,.007-.054l.041,0,.045.171a.3.3,0,0,1-.048.006H6.642a.3.3,0,0,1,.051.056.14.14,0,0,1,.022.075.166.166,0,0,1-.011.069.107.107,0,0,1-.04.049.125.125,0,0,1-.067.02l-.15.006a.093.093,0,0,0-.051.012c-.009.007-.013.024-.012.052Z" transform="translate(6502.532 -201.579)" fill="#003a84"/>
    <path id="Path_3373" data-name="Path 3373" d="M6.645,63.792a.181.181,0,0,1-.122-.162.25.25,0,0,1,.012-.107.193.193,0,0,1,.058-.086.172.172,0,0,1,.1-.04.186.186,0,0,1,.078.008.21.21,0,0,1,.07.04.218.218,0,0,1,.053.068.249.249,0,0,1,.025.088.23.23,0,0,1-.013.11.074.074,0,0,1-.062.053.044.044,0,0,1-.035-.011.048.048,0,0,1-.017-.032.041.041,0,0,1,.006-.029.041.041,0,0,1,.016-.014l.03-.012a.053.053,0,0,0,.029-.022.066.066,0,0,0,.005-.038.1.1,0,0,0-.037-.068.155.155,0,0,0-.115-.02.249.249,0,0,0-.079.021.122.122,0,0,0-.054.046.1.1,0,0,0-.015.069.1.1,0,0,0,.028.065.245.245,0,0,0,.055.036Z" transform="translate(6502.361 -204.74)" fill="#003a84"/>
    <path id="Path_3374" data-name="Path 3374" d="M5.825,66.225a.073.073,0,0,0-.014-.028.065.065,0,0,0-.025-.016l-.064-.021-.287-.087-.127-.04a.163.163,0,0,1-.052-.028.073.073,0,0,1-.025-.046.054.054,0,0,1,.007-.037.039.039,0,0,1,.029-.02.043.043,0,0,1,.042.012.174.174,0,0,1,.028.044.106.106,0,0,0,.051.053.371.371,0,0,0,.072.025l.268-.214a.078.078,0,0,0,.024-.026.052.052,0,0,0,0-.028l.04-.006.034.213-.04.006,0-.014c0-.02-.01-.03-.019-.028a.078.078,0,0,0-.028.017l-.148.118.15.047a.118.118,0,0,0,.043.008.023.023,0,0,0,.018-.016.062.062,0,0,0,0-.032l.04-.006.022.142Z" transform="translate(6503.478 -206.786)" fill="#003a84"/>
    <path id="Path_3375" data-name="Path 3375" d="M7.939,70.613a.188.188,0,0,1-.109,0,.19.19,0,0,1-.085-.061.251.251,0,0,1-.049-.1.261.261,0,0,1,0-.108.193.193,0,0,1,.045-.1.183.183,0,0,1,.1-.057.173.173,0,0,1,.158.03.252.252,0,0,1,.085.14.241.241,0,0,1,0,.12.183.183,0,0,1-.052.089.2.2,0,0,1-.089.047m-.026-.12a.253.253,0,0,0,.106-.046.08.08,0,0,0,.019-.085.089.089,0,0,0-.03-.052.09.09,0,0,0-.057-.016.409.409,0,0,0-.09.013.282.282,0,0,0-.1.044.077.077,0,0,0-.022.087.079.079,0,0,0,.037.054.113.113,0,0,0,.063.013.458.458,0,0,0,.078-.013" transform="translate(6501.353 -210.606)" fill="#003a84"/>
    <path id="Path_3376" data-name="Path 3376" d="M8.843,73.208A.05.05,0,0,1,8.8,73.2a.057.057,0,0,1-.025-.032.045.045,0,0,1,.006-.044.151.151,0,0,1,.04-.032.043.043,0,0,0,.023-.051c-.006-.019-.016-.029-.032-.029a.241.241,0,0,0-.068.012l-.113.033.025.087-.039.012-.025-.087-.209.061a.222.222,0,0,0-.037.014.028.028,0,0,0-.014.019.079.079,0,0,0,0,.038l0,.016-.039.012-.073-.25.039-.012.006.019a.077.077,0,0,0,.016.033.031.031,0,0,0,.023.009.164.164,0,0,0,.038-.007l.209-.061-.021-.072.039-.012.021.072.05-.015a.384.384,0,0,1,.052-.012.188.188,0,0,1,.056,0,.147.147,0,0,1,.064.026A.171.171,0,0,1,8.864,73a.238.238,0,0,1,.026.058.175.175,0,0,1,.008.082.093.093,0,0,1-.023.049.081.081,0,0,1-.032.021" transform="translate(6500.886 -212.937)" fill="#003a84"/>
    <path id="Path_3377" data-name="Path 3377" d="M9.568,76.451l-.06-.15a.3.3,0,0,1,.018-.031l.03-.043.029-.04.047-.063a.591.591,0,0,0,.042-.062.062.062,0,0,0,.008-.038.272.272,0,0,0-.019-.058l-.008-.021L9.509,76a.123.123,0,0,0-.035.02.041.041,0,0,0-.012.032.163.163,0,0,0,.014.056l-.038.015-.113-.281.038-.015c.014.034.027.054.041.06a.077.077,0,0,0,.057-.006l.353-.142a.079.079,0,0,0,.045-.035.1.1,0,0,0-.012-.072l.039-.016.056.128.015.034.015.035.016.043c.01.028.019.055.026.08a.4.4,0,0,1,.014.061.21.21,0,0,1,0,.069.154.154,0,0,1-.03.065.142.142,0,0,1-.062.045.137.137,0,0,1-.059.01.135.135,0,0,1-.063-.02.218.218,0,0,1-.061-.058.2.2,0,0,1-.023.069q-.018.031-.07.1a.715.715,0,0,0-.043.067A.117.117,0,0,0,9.6,76.4a.11.11,0,0,0,.005.04Zm.317-.4q.067-.027.072-.076a.24.24,0,0,0-.021-.115l-.006-.014,0-.012-.225.09.01.026a.263.263,0,0,0,.062.1.1.1,0,0,0,.112,0" transform="translate(6499.938 -215.309)" fill="#003a84"/>
    <path id="Path_3378" data-name="Path 3378" d="M11.5,80.735l-.022-.039-.037-.062a.63.63,0,0,0-.036-.053l.058-.029a.176.176,0,0,1-.12-.094.127.127,0,0,1-.016-.088.1.1,0,0,1,.034-.055.285.285,0,0,1,.055-.034l.118-.058a.172.172,0,0,0,.033-.02.028.028,0,0,0,.009-.023.109.109,0,0,0-.014-.042l.037-.018.079.16-.22.108c-.045.022-.059.051-.042.086a.076.076,0,0,0,.046.04.238.238,0,0,0,.057.012l.132-.065a.173.173,0,0,0,.034-.02.028.028,0,0,0,.009-.023.125.125,0,0,0-.015-.044l.037-.018.08.162-.24.118a.09.09,0,0,0-.026.017.03.03,0,0,0-.006.023.13.13,0,0,0,.014.042Z" transform="translate(6498.206 -219.198)" fill="#003a84"/>
    <path id="Path_3379" data-name="Path 3379" d="M12.957,83.565a.053.053,0,0,1-.043.006.053.053,0,0,1-.031-.025.055.055,0,0,1,0-.051.114.114,0,0,0,.007-.021.025.025,0,0,0,0-.017.06.06,0,0,0-.059-.028.168.168,0,0,0-.077.022l-.067.038a.1.1,0,0,0-.04.033c0,.01,0,.027.013.051l.012.02-.036.02-.136-.24.036-.02.011.02c.012.022.024.033.035.033a.106.106,0,0,0,.048-.018l.113-.064a.109.109,0,0,0,.034-.026.031.031,0,0,0,0-.027.2.2,0,0,0-.021-.045l.036-.02.119.132a.609.609,0,0,1-.078.058.186.186,0,0,1,.058,0,.169.169,0,0,1,.053.022.108.108,0,0,1,.037.038.08.08,0,0,1,.011.06.066.066,0,0,1-.033.043" transform="translate(6497.198 -221.868)" fill="#003a84"/>
    <path id="Path_3380" data-name="Path 3380" d="M14.332,86.194a.113.113,0,0,1-.056.019.085.085,0,0,1-.05-.012.119.119,0,0,1-.038-.038.106.106,0,0,1-.019-.062.068.068,0,0,1,.019-.048.239.239,0,0,1-.131-.094.127.127,0,0,1-.023-.079.074.074,0,0,1,.035-.059.1.1,0,0,1,.057-.017.151.151,0,0,1,.064.016.369.369,0,0,1,.071.045c.025.019.053.044.086.075l.021-.014a.076.076,0,0,0,.034-.039.069.069,0,0,0-.014-.056.071.071,0,0,0-.039-.034.075.075,0,0,0-.047.006.08.08,0,0,1-.035.007c-.011,0-.022-.01-.032-.027a.054.054,0,0,1-.009-.033.037.037,0,0,1,.019-.029.088.088,0,0,1,.085,0,.248.248,0,0,1,.1.1.2.2,0,0,1,.045.131.114.114,0,0,1-.054.078l-.118.076-.032.022a.032.032,0,0,0-.012.016.026.026,0,0,0,.026.03.048.048,0,0,0,.029-.008Zm-.113-.17.093-.059a.263.263,0,0,0-.1-.062.077.077,0,0,0-.054.008.044.044,0,0,0-.021.028.047.047,0,0,0,.008.036.089.089,0,0,0,.032.031.273.273,0,0,0,.044.019" transform="translate(6495.865 -224.034)" fill="#003a84"/>
    <path id="Path_3381" data-name="Path 3381" d="M15.591,87.409l-.148-.209.033-.024.011.016a.075.075,0,0,0,.028.027.03.03,0,0,0,.025,0,.205.205,0,0,0,.032-.02l.31-.219q.026-.018.025-.036a.13.13,0,0,0-.027-.053l.033-.024.14.132-.415.293a.216.216,0,0,0-.029.024.029.029,0,0,0-.008.023.074.074,0,0,0,.016.035l.007.011Z" transform="translate(6494.647 -225.034)" fill="#003a84"/>
    <path id="Path_3382" data-name="Path 3382" d="M17.731,89.506a.3.3,0,0,1-.1.059.273.273,0,0,1-.1.012.249.249,0,0,1-.089-.024.511.511,0,0,1-.161-.134l-.177-.211.031-.026a.171.171,0,0,0,.043.04.041.041,0,0,0,.033.005.113.113,0,0,0,.036-.022l.292-.245a.077.077,0,0,0,.032-.048q0-.023-.035-.067l.032-.027.085.1.036.041.036.042a.827.827,0,0,1,.075.1.411.411,0,0,1,.041.089.26.26,0,0,1,.013.085.281.281,0,0,1-.014.085.31.31,0,0,1-.038.078.32.32,0,0,1-.061.068m-.09-.112a.314.314,0,0,0,.1-.128.192.192,0,0,0,0-.131.2.2,0,0,0-.026-.052q-.017-.025-.053-.068l-.325.272a.272.272,0,0,0-.038.037.035.035,0,0,0-.006.032.125.125,0,0,0,.028.047.163.163,0,0,0,.156.068.335.335,0,0,0,.162-.077" transform="translate(6493.22 -226.721)" fill="#003a84"/>
    <path id="Path_3383" data-name="Path 3383" d="M21.141,94.4l-.191-.2-.024.027a.2.2,0,0,0-.032.048.106.106,0,0,0-.01.06.11.11,0,0,0,.034.063.173.173,0,0,0,.048.032.123.123,0,0,0,.074.009l.007.041a.182.182,0,0,1-.177-.061.285.285,0,0,1-.055-.077.208.208,0,0,1-.02-.08.178.178,0,0,1,.013-.075.193.193,0,0,1,.044-.065.2.2,0,0,1,.089-.051.19.19,0,0,1,.1,0,.224.224,0,0,1,.1.06.192.192,0,0,1,.053.092.162.162,0,0,1-.006.092.2.2,0,0,1-.05.076m-.048-.108q.073-.071.017-.128a.069.069,0,0,0-.061-.023.132.132,0,0,0-.069.035Z" transform="translate(6490.02 -231.265)" fill="#003a84"/>
    <path id="Path_3384" data-name="Path 3384" d="M23.6,95.7a.039.039,0,0,0-.032-.012.329.329,0,0,0-.056.017l-.281.108-.046-.042.087-.32a.116.116,0,0,0,.007-.037.074.074,0,0,0-.018-.026l.028-.03.16.147-.028.03a.144.144,0,0,0-.028-.02.014.014,0,0,0-.017,0,.066.066,0,0,0-.011.025l-.054.2.185-.071a.078.078,0,0,0,.025-.014.015.015,0,0,0,0-.019.121.121,0,0,0-.023-.025l.028-.03.1.091Z" transform="translate(6487.958 -232.375)" fill="#003a84"/>
    <path id="Path_3385" data-name="Path 3385" d="M25.348,98.247l-.211-.174-.021.029a.205.205,0,0,0-.026.052.106.106,0,0,0,0,.06.109.109,0,0,0,.04.059.175.175,0,0,0,.052.027.122.122,0,0,0,.074,0l.012.04a.182.182,0,0,1-.182-.041.279.279,0,0,1-.063-.071.207.207,0,0,1-.029-.077.176.176,0,0,1,0-.076.19.19,0,0,1,.037-.069.2.2,0,0,1,.083-.061.191.191,0,0,1,.1-.009.224.224,0,0,1,.1.049.189.189,0,0,1,.063.086.161.161,0,0,1,0,.092.2.2,0,0,1-.041.082m-.059-.1q.064-.078,0-.129A.069.069,0,0,0,25.228,98a.131.131,0,0,0-.064.042Z" transform="translate(6486.395 -234.603)" fill="#003a84"/>
    <path id="Path_3386" data-name="Path 3386" d="M26.814,98.464l-.2-.154.025-.033.015.012a.076.076,0,0,0,.034.017.03.03,0,0,0,.024-.007.2.2,0,0,0,.025-.029l.228-.3c.013-.017.017-.031.013-.042a.129.129,0,0,0-.042-.043l.025-.033.174.083-.305.406a.223.223,0,0,0-.021.032.03.03,0,0,0,0,.025.073.073,0,0,0,.026.028l.01.008Z" transform="translate(6484.993 -234.529)" fill="#003a84"/>
    <path id="Path_3387" data-name="Path 3387" d="M28.948,100.949a.186.186,0,0,1-.188.083.252.252,0,0,1-.1-.042.264.264,0,0,1-.075-.078.194.194,0,0,1-.03-.1.182.182,0,0,1,.035-.108.172.172,0,0,1,.137-.084.251.251,0,0,1,.158.047.241.241,0,0,1,.081.088.183.183,0,0,1,.021.1.2.2,0,0,1-.034.095m-.1-.071a.254.254,0,0,0,.048-.105.08.08,0,0,0-.043-.075.09.09,0,0,0-.057-.019.089.089,0,0,0-.053.026.4.4,0,0,0-.058.07.285.285,0,0,0-.047.1.077.077,0,0,0,.042.08.079.079,0,0,0,.064.015.114.114,0,0,0,.055-.033.464.464,0,0,0,.049-.061" transform="translate(6483.315 -236.922)" fill="#003a84"/>
    <path id="Path_3388" data-name="Path 3388" d="M30.531,102.384a.209.209,0,0,1-.074.075.2.2,0,0,1-.1.028.192.192,0,0,1-.1-.028.172.172,0,0,1-.08-.1l-.072.123a.159.159,0,0,0-.017.034.03.03,0,0,0,0,.024.08.08,0,0,0,.028.024l.021.012-.021.035-.223-.131.021-.035a.132.132,0,0,0,.04.018.027.027,0,0,0,.024-.006.161.161,0,0,0,.024-.033l.177-.3a.13.13,0,0,0,.016-.034.027.027,0,0,0-.006-.023.132.132,0,0,0-.035-.027l.021-.035.168.055a.235.235,0,0,1-.023.052.2.2,0,0,1,.074-.006.181.181,0,0,1,.069.025.191.191,0,0,1,.061.054.172.172,0,0,1,.029.067.194.194,0,0,1,0,.071.207.207,0,0,1-.025.067m-.1-.066q.069-.118-.013-.166a.1.1,0,0,0-.058-.013.176.176,0,0,0-.06.015l-.089.151a.127.127,0,0,0,.018.059.115.115,0,0,0,.041.043q.082.048.162-.088" transform="translate(6482.15 -238.117)" fill="#003a84"/>
    <path id="Path_3389" data-name="Path 3389" d="M34.664,104.476l-.223-.105.017-.037a.1.1,0,0,0,.042.012.029.029,0,0,0,.022-.011.18.18,0,0,0,.019-.034l.057-.122a.114.114,0,0,0,.011-.055c0-.019-.015-.035-.043-.048a.1.1,0,0,0-.059-.01.107.107,0,0,0-.053.025.156.156,0,0,0-.04.053l-.037.078a.17.17,0,0,0-.014.038.029.029,0,0,0,.008.024.112.112,0,0,0,.038.025l-.017.037-.219-.1.017-.037a.1.1,0,0,0,.042.012.028.028,0,0,0,.023-.01.194.194,0,0,0,.019-.034l.06-.127a.064.064,0,0,0,0-.065.1.1,0,0,0-.036-.032.119.119,0,0,0-.056-.011.1.1,0,0,0-.052.015.093.093,0,0,0-.025.023.218.218,0,0,0-.019.034l-.04.085a.175.175,0,0,0-.014.038.029.029,0,0,0,.008.024.114.114,0,0,0,.038.025l-.017.037-.22-.1.017-.037a.107.107,0,0,0,.042.013.028.028,0,0,0,.023-.01.18.18,0,0,0,.02-.035l.065-.138q.018-.038-.031-.061l-.02-.01.017-.037.186.045a.512.512,0,0,1-.026.063.263.263,0,0,1,.082-.016.176.176,0,0,1,.082.018.209.209,0,0,1,.068.051.114.114,0,0,1,.027.082.218.218,0,0,1,.1-.024.2.2,0,0,1,.076.019.159.159,0,0,1,.084.076.128.128,0,0,1-.009.109l-.058.124a.2.2,0,0,0-.014.035.029.029,0,0,0,0,.024.073.073,0,0,0,.031.023l.014.007Z" transform="translate(6478.687 -239.677)" fill="#003a84"/>
    <path id="Path_3390" data-name="Path 3390" d="M40.246,106.729l-.257-.095-.01.035a.21.21,0,0,0-.008.057.106.106,0,0,0,.017.058.109.109,0,0,0,.058.042.176.176,0,0,0,.058.009.123.123,0,0,0,.07-.023l.024.034a.182.182,0,0,1-.186.021.286.286,0,0,1-.082-.046.21.21,0,0,1-.053-.063.176.176,0,0,1-.021-.074.188.188,0,0,1,.012-.077.2.2,0,0,1,.059-.084.192.192,0,0,1,.1-.043.223.223,0,0,1,.113.013.191.191,0,0,1,.087.06.162.162,0,0,1,.035.085.2.2,0,0,1-.012.09m-.089-.077q.035-.1-.04-.123a.069.069,0,0,0-.065.006A.132.132,0,0,0,40,106.6Z" transform="translate(6473.54 -241.988)" fill="#003a84"/>
    <path id="Path_3391" data-name="Path 3391" d="M42.657,107.744l-.221-.066.012-.039a.077.077,0,0,0,.038,0,.03.03,0,0,0,.019-.015.255.255,0,0,0,.015-.041l.036-.121a.134.134,0,0,0,.007-.061c0-.016-.015-.028-.037-.034a.077.077,0,0,0-.077.014.149.149,0,0,0-.046.072l-.029.1a.081.081,0,0,0,0,.049c0,.01.017.019.038.025l-.012.039-.225-.068.012-.039a.129.129,0,0,0,.042.007.028.028,0,0,0,.023-.012.139.139,0,0,0,.016-.039l.041-.138a.051.051,0,0,0,0-.042.1.1,0,0,0-.048-.025l.012-.039.177.013a.331.331,0,0,1-.01.047l0,.009,0,.009a.3.3,0,0,1,.07-.03.14.14,0,0,1,.078,0,.165.165,0,0,1,.062.033.107.107,0,0,1,.034.054.126.126,0,0,1,0,.07l-.043.144a.092.092,0,0,0-.005.052c0,.011.019.02.045.028Z" transform="translate(6471.537 -242.675)" fill="#003a84"/>
    <path id="Path_3392" data-name="Path 3392" d="M46.333,107.9a.178.178,0,0,1-.071.057.131.131,0,0,1-.078,0,.118.118,0,0,1-.07-.039.088.088,0,0,1-.018-.054.281.281,0,0,1,.008-.059l.05-.2-.065-.016.01-.04a.159.159,0,0,0,.075,0,.128.128,0,0,0,.058-.03.142.142,0,0,0,.036-.051l.035.009-.028.114.122.03-.01.04-.122-.03-.05.206a.214.214,0,0,0-.008.056.023.023,0,0,0,.02.023.044.044,0,0,0,.038-.008.234.234,0,0,0,.036-.034Z" transform="translate(6468.152 -242.85)" fill="#003a84"/>
    <path id="Path_3393" data-name="Path 3393" d="M49.575,107.778a.215.215,0,0,1-.026.065.14.14,0,0,1-.05.049.108.108,0,0,1-.073.011.131.131,0,0,1-.04-.013.164.164,0,0,1-.04-.03.509.509,0,0,1-.05-.06.329.329,0,0,1-.1.048.217.217,0,0,1-.09.007.167.167,0,0,1-.082-.036.159.159,0,0,1-.049-.068.157.157,0,0,1-.009-.081.177.177,0,0,1,.065-.113.294.294,0,0,1,.1-.055.514.514,0,0,1-.023-.074.176.176,0,0,1,0-.066.14.14,0,0,1,.022-.058.125.125,0,0,1,.039-.038.144.144,0,0,1,.049-.018.157.157,0,0,1,.053,0,.128.128,0,0,1,.064.027.12.12,0,0,1,.037.05.113.113,0,0,1,.006.057.128.128,0,0,1-.039.071.228.228,0,0,1-.09.052l.108.2a.575.575,0,0,0,.053-.055.12.12,0,0,0,.028-.058.052.052,0,0,0,0-.025c0-.011-.016-.017-.035-.02l.006-.04.181.028-.006.04a.12.12,0,0,0-.041.009.107.107,0,0,0-.03.021c-.009.009-.025.026-.048.052l-.024.028a.474.474,0,0,1-.058.057.3.3,0,0,0,.041.063.083.083,0,0,0,.049.033.047.047,0,0,0,.024,0,.055.055,0,0,0,.023-.02.129.129,0,0,0,.018-.04Zm-.3-.012-.123-.225a.115.115,0,0,0-.081.088.139.139,0,0,0,.007.069.16.16,0,0,0,.039.061.107.107,0,0,0,.06.031.106.106,0,0,0,.051,0,.326.326,0,0,0,.048-.021m.043-.4a.086.086,0,0,0,0-.035.062.062,0,0,0-.017-.029.058.058,0,0,0-.032-.015.056.056,0,0,0-.046.011.059.059,0,0,0-.022.037.214.214,0,0,0,.031.126.32.32,0,0,0,.059-.039.09.09,0,0,0,.029-.056" transform="translate(6465.663 -242.651)" fill="#003a84"/>
    <path id="Path_3394" data-name="Path 3394" d="M55.078,108.273a.167.167,0,0,1-.015.059.209.209,0,0,1-.039.058.185.185,0,0,1-.064.043.191.191,0,0,1-.086.013.234.234,0,0,1-.094-.026.209.209,0,0,1-.077-.066.238.238,0,0,0-.022.06l-.041,0,.011-.206.041,0a.407.407,0,0,0,.026.085.2.2,0,0,0,.052.07.137.137,0,0,0,.086.033.1.1,0,0,0,.074-.021.082.082,0,0,0,.031-.061.079.079,0,0,0-.006-.038.089.089,0,0,0-.023-.03.287.287,0,0,0-.042-.03l-.061-.034a.538.538,0,0,1-.087-.057.254.254,0,0,1-.05-.054.166.166,0,0,1-.022-.048.151.151,0,0,1,0-.045.163.163,0,0,1,.026-.079.172.172,0,0,1,.067-.061.185.185,0,0,1,.1-.02.181.181,0,0,1,.079.023A.207.207,0,0,1,55,107.9a.27.27,0,0,0,.018-.052l.042,0-.009.168-.042,0q-.037-.14-.147-.146a.1.1,0,0,0-.065.018.069.069,0,0,0-.027.053.072.072,0,0,0,.013.046.127.127,0,0,0,.038.035c.016.01.042.025.078.044a1.172,1.172,0,0,1,.1.06.225.225,0,0,1,.06.062.138.138,0,0,1,.021.086" transform="translate(6460.758 -243.148)" fill="#003a84"/>
    <path id="Path_3395" data-name="Path 3395" d="M58.38,109.828a.188.188,0,0,1-.028.106.19.19,0,0,1-.079.07.253.253,0,0,1-.109.025.262.262,0,0,1-.106-.021.194.194,0,0,1-.082-.065.182.182,0,0,1-.033-.109.173.173,0,0,1,.064-.147.251.251,0,0,1,.156-.052.239.239,0,0,1,.117.025.183.183,0,0,1,.075.071.2.2,0,0,1,.026.1m-.123,0a.254.254,0,0,0-.021-.114.08.08,0,0,0-.078-.037.09.09,0,0,0-.057.017.091.091,0,0,0-.028.052.421.421,0,0,0-.007.091.284.284,0,0,0,.019.111.077.077,0,0,0,.08.041.078.078,0,0,0,.061-.024.114.114,0,0,0,.027-.058.448.448,0,0,0,.005-.079" transform="translate(6457.903 -244.718)" fill="#003a84"/>
    <path id="Path_3396" data-name="Path 3396" d="M61.265,108.4l-.241.014,0-.041h.013a.075.075,0,0,0,.037-.009.029.029,0,0,0,.013-.021.194.194,0,0,0,0-.038l-.008-.132a.153.153,0,0,0-.006-.039.025.025,0,0,0-.018-.016.151.151,0,0,0-.047,0l0-.041.18-.049.016.273a.1.1,0,0,0,.012.05c.007.009.024.013.051.011Zm-.082-.549a.064.064,0,0,1-.107.051.063.063,0,0,1-.005-.091.064.064,0,0,1,.113.039" transform="translate(6455.254 -243.124)" fill="#003a84"/>
    <path id="Path_3397" data-name="Path 3397" d="M62.594,108.288l-.255.022,0-.041.019,0a.077.077,0,0,0,.037-.01.029.029,0,0,0,.013-.021.2.2,0,0,0,0-.038l-.033-.378q0-.032-.018-.039a.131.131,0,0,0-.06,0l0-.041.185-.055.044.506a.2.2,0,0,0,.006.037.029.029,0,0,0,.016.019.075.075,0,0,0,.038,0h.013Z" transform="translate(6454.145 -243.031)" fill="#003a84"/>
    <path id="Path_3398" data-name="Path 3398" d="M65.836,109.269a.114.114,0,0,1,0,.059.086.086,0,0,1-.031.04.12.12,0,0,1-.05.019.105.105,0,0,1-.064-.008.067.067,0,0,1-.036-.037.239.239,0,0,1-.139.082.127.127,0,0,1-.081-.011.074.074,0,0,1-.04-.056.1.1,0,0,1,.008-.059.154.154,0,0,1,.041-.052.373.373,0,0,1,.069-.047c.027-.014.062-.031.1-.049l0-.025a.075.075,0,0,0-.022-.047.068.068,0,0,0-.057-.009.07.07,0,0,0-.047.022.074.074,0,0,0-.013.046.081.081,0,0,1-.008.035c-.005.01-.017.016-.037.019a.054.054,0,0,1-.034-.005.037.037,0,0,1-.019-.029.087.087,0,0,1,.033-.078.247.247,0,0,1,.131-.051.205.205,0,0,1,.138.012.113.113,0,0,1,.05.081l.022.139q0,.026.007.039a.032.032,0,0,0,.01.017.024.024,0,0,0,.02,0,.025.025,0,0,0,.018-.015.049.049,0,0,0,0-.03Zm-.2.035-.017-.109a.265.265,0,0,0-.1.068.076.076,0,0,0-.015.053.044.044,0,0,0,.017.031.048.048,0,0,0,.037.007.088.088,0,0,0,.041-.017.275.275,0,0,0,.035-.033" transform="translate(6451.481 -244.188)" fill="#003a84"/>
    <path id="Path_3399" data-name="Path 3399" d="M68.642,108.664l-.225.049-.009-.04a.077.077,0,0,0,.035-.015.029.029,0,0,0,.009-.023.251.251,0,0,0-.007-.044l-.027-.123a.137.137,0,0,0-.024-.056.046.046,0,0,0-.049-.012.077.077,0,0,0-.06.05.15.15,0,0,0,0,.085l.021.1a.082.082,0,0,0,.02.045.055.055,0,0,0,.046,0l.009.04-.229.05-.009-.04a.131.131,0,0,0,.04-.014.028.028,0,0,0,.014-.022.134.134,0,0,0,0-.042l-.031-.14c0-.02-.011-.033-.02-.037a.1.1,0,0,0-.054,0l-.009-.04.161-.075a.319.319,0,0,1,.014.046l0,.01,0,.009a.306.306,0,0,1,.046-.06.142.142,0,0,1,.07-.035.166.166,0,0,1,.07,0,.108.108,0,0,1,.056.03.127.127,0,0,1,.031.062l.032.146a.092.092,0,0,0,.021.048c.009.008.026.008.053,0Z" transform="translate(6449.142 -243.591)" fill="#003a84"/>
    <path id="Path_3400" data-name="Path 3400" d="M72.332,106.1a1.088,1.088,0,0,0-.16.067.137.137,0,0,1-.021-.043.192.192,0,0,1-.107.08.183.183,0,0,1-.1,0,.2.2,0,0,1-.089-.051.2.2,0,0,1-.054-.091.21.21,0,0,1-.008-.069.186.186,0,0,1,.017-.07.172.172,0,0,1,.046-.06.207.207,0,0,1,.075-.039.185.185,0,0,1,.059-.008.145.145,0,0,1,.043.008.277.277,0,0,1,.036.017l-.041-.14a.131.131,0,0,0-.017-.04.026.026,0,0,0-.022-.011.222.222,0,0,0-.044.008l-.011-.039.164-.088.14.478a.224.224,0,0,0,.015.042.025.025,0,0,0,.021.013.15.15,0,0,0,.046-.006Zm-.2-.03-.05-.173a.24.24,0,0,0-.054-.027.1.1,0,0,0-.064,0,.076.076,0,0,0-.036.023.1.1,0,0,0-.021.038.2.2,0,0,0,.01.1.186.186,0,0,0,.058.1.084.084,0,0,0,.077.016.111.111,0,0,0,.049-.03.143.143,0,0,0,.031-.051" transform="translate(6445.928 -241.176)" fill="#003a84"/>
    <path id="Path_3401" data-name="Path 3401" d="M75.816,102.934a.128.128,0,0,0-.039.028.055.055,0,0,0-.011.035.62.62,0,0,0,.007.074l.065.476-.057.024-.311-.339.036.456-.056.024-.314-.385a.391.391,0,0,0-.046-.049.056.056,0,0,0-.033-.015.1.1,0,0,0-.039.009L75,103.234l.24-.1.016.038a.147.147,0,0,0-.039.022c-.008.007-.009.017,0,.03a.2.2,0,0,0,.028.041l.2.243-.034-.443.054-.023.3.33-.04-.29a.191.191,0,0,0-.011-.046c-.009-.02-.02-.03-.035-.03a.138.138,0,0,0-.052.011l-.016-.038.19-.081Z" transform="translate(6443.153 -238.892)" fill="#003a84"/>
    <path id="Path_3402" data-name="Path 3402" d="M81.667,103.934a.113.113,0,0,1,.014.058.085.085,0,0,1-.017.048.116.116,0,0,1-.042.034.1.1,0,0,1-.063.013.067.067,0,0,1-.046-.023.238.238,0,0,1-.105.122.126.126,0,0,1-.081.016.074.074,0,0,1-.056-.04.1.1,0,0,1-.012-.058.15.15,0,0,1,.022-.063.378.378,0,0,1,.051-.066q.032-.034.083-.079l-.012-.022a.075.075,0,0,0-.036-.037.069.069,0,0,0-.057.009.071.071,0,0,0-.037.035.074.074,0,0,0,0,.048.079.079,0,0,1,0,.036c0,.011-.011.021-.029.03a.054.054,0,0,1-.034.006.037.037,0,0,1-.027-.022.087.087,0,0,1,.007-.084.247.247,0,0,1,.108-.091.2.2,0,0,1,.135-.033.112.112,0,0,1,.073.061l.065.125c.008.016.015.027.019.034a.031.031,0,0,0,.015.013.026.026,0,0,0,.032-.023.047.047,0,0,0-.006-.03Zm-.179.1-.051-.1a.263.263,0,0,0-.071.1.077.077,0,0,0,0,.055.044.044,0,0,0,.026.023.048.048,0,0,0,.037-.005.089.089,0,0,0,.033-.029.285.285,0,0,0,.023-.042" transform="translate(6437.811 -239.644)" fill="#003a84"/>
    <path id="Path_3403" data-name="Path 3403" d="M83.809,102.318a.176.176,0,0,1-.012.091.13.13,0,0,1-.054.057.117.117,0,0,1-.078.021.087.087,0,0,1-.051-.026.273.273,0,0,1-.035-.048l-.106-.181-.058.034-.021-.035a.156.156,0,0,0,.055-.051.127.127,0,0,0,.021-.062.146.146,0,0,0-.01-.062l.031-.019.059.1.109-.064.021.035-.109.064.107.183a.222.222,0,0,0,.033.046.023.023,0,0,0,.03,0,.043.043,0,0,0,.022-.032.257.257,0,0,0,0-.049Z" transform="translate(6435.896 -238.149)" fill="#003a84"/>
    <path id="Path_3404" data-name="Path 3404" d="M86.018,101.339l-.229.149.022.029a.209.209,0,0,0,.041.04.105.105,0,0,0,.057.021.11.11,0,0,0,.068-.021.174.174,0,0,0,.041-.041.122.122,0,0,0,.023-.07h.042a.182.182,0,0,1-.094.161.281.281,0,0,1-.086.038.205.205,0,0,1-.082,0,.175.175,0,0,1-.071-.027.189.189,0,0,1-.055-.056.2.2,0,0,1-.032-.1.19.19,0,0,1,.023-.1.222.222,0,0,1,.078-.083.192.192,0,0,1,.1-.034.162.162,0,0,1,.089.023.2.2,0,0,1,.065.064m-.115.026q-.055-.085-.122-.041a.069.069,0,0,0-.034.056.133.133,0,0,0,.021.074Z" transform="translate(6433.936 -237.47)" fill="#003a84"/>
    <path id="Path_3405" data-name="Path 3405" d="M87.794,99.464a.053.053,0,0,1,.011.042.052.052,0,0,1-.021.034.055.055,0,0,1-.05.006l-.021,0a.024.024,0,0,0-.016.006.059.059,0,0,0-.022.062.169.169,0,0,0,.03.074l.045.063a.1.1,0,0,0,.038.036q.016.006.049-.019l.019-.014.024.033-.223.162-.024-.033.019-.014c.02-.015.03-.027.029-.038a.107.107,0,0,0-.023-.046l-.076-.105a.109.109,0,0,0-.03-.031.031.031,0,0,0-.027,0,.211.211,0,0,0-.043.026l-.024-.033.118-.133a.6.6,0,0,1,.067.071.19.19,0,0,1,0-.058.171.171,0,0,1,.016-.055.108.108,0,0,1,.034-.041.081.081,0,0,1,.059-.017.067.067,0,0,1,.047.028" transform="translate(6432.385 -235.9)" fill="#003a84"/>
    <path id="Path_3406" data-name="Path 3406" d="M90.773,95.28l-.032.027a.2.2,0,0,0-.068-.031.347.347,0,0,1-.019.1.234.234,0,0,1-.072.1.3.3,0,0,1-.14.069.3.3,0,0,1-.156-.01.311.311,0,0,1-.136-.093.328.328,0,0,1-.062-.105.308.308,0,0,1-.018-.118.3.3,0,0,1,.03-.117.313.313,0,0,1,.079-.1.254.254,0,0,1,.189-.067.293.293,0,0,0-.022-.054l.03-.026.151.162-.032.028a.271.271,0,0,0-.1-.048.216.216,0,0,0-.1,0,.176.176,0,0,0-.081.04.158.158,0,0,0-.05.081.18.18,0,0,0,.008.105.383.383,0,0,0,.076.122.426.426,0,0,0,.1.091.218.218,0,0,0,.09.031.153.153,0,0,0,.114-.036.172.172,0,0,0,.055-.087.243.243,0,0,0,.005-.1.275.275,0,0,0-.03-.091l.032-.028Z" transform="translate(6430.125 -231.931)" fill="#003a84"/>
    <path id="Path_3407" data-name="Path 3407" d="M94.477,94.247a.186.186,0,0,1,.048.2.251.251,0,0,1-.06.095.263.263,0,0,1-.09.06.2.2,0,0,1-.1.012.182.182,0,0,1-.1-.054.173.173,0,0,1-.058-.15.251.251,0,0,1,.074-.147.24.24,0,0,1,.1-.064.183.183,0,0,1,.1,0,.2.2,0,0,1,.087.05m-.088.086a.254.254,0,0,0-.1-.066.08.08,0,0,0-.082.029.078.078,0,0,0-.012.109.4.4,0,0,0,.059.069.284.284,0,0,0,.092.065.077.077,0,0,0,.086-.027.079.079,0,0,0,.027-.06.113.113,0,0,0-.022-.06.453.453,0,0,0-.052-.059" transform="translate(6426.631 -231.365)" fill="#003a84"/>
    <path id="Path_3408" data-name="Path 3408" d="M96.47,91.755l-.15.175-.031-.027a.078.078,0,0,0,.019-.033.029.029,0,0,0-.006-.024.244.244,0,0,0-.032-.031l-.1-.082a.133.133,0,0,0-.053-.031.046.046,0,0,0-.046.02.077.077,0,0,0-.018.076.15.15,0,0,0,.048.071l.075.065a.081.081,0,0,0,.043.024c.011,0,.024-.008.038-.025l.031.027-.153.178-.031-.027a.13.13,0,0,0,.024-.036.029.029,0,0,0,0-.026.14.14,0,0,0-.029-.03l-.109-.094q-.024-.02-.039-.017a.1.1,0,0,0-.042.034l-.031-.027.084-.156a.322.322,0,0,1,.039.028l.007.007.007.006a.3.3,0,0,1,0-.076.141.141,0,0,1,.035-.07.167.167,0,0,1,.055-.043.108.108,0,0,1,.063-.009.126.126,0,0,1,.062.031l.114.1a.094.094,0,0,0,.045.026c.011,0,.026-.009.044-.03Z" transform="translate(6425.1 -229.127)" fill="#003a84"/>
    <path id="Path_3409" data-name="Path 3409" d="M98.731,89.185a.1.1,0,0,1,.038.058.141.141,0,0,1-.005.075.277.277,0,0,1-.045.082.372.372,0,0,1-.048.052.23.23,0,0,1-.054.037l.009.029-.021.028-.095-.067.023-.03a.107.107,0,0,0,.07,0,.182.182,0,0,0,.081-.066.308.308,0,0,0,.02-.03.092.092,0,0,0,.012-.038.037.037,0,0,0-.016-.035.03.03,0,0,0-.034,0,.408.408,0,0,0-.059.042q-.05.039-.084.062a.183.183,0,0,1-.072.028.09.09,0,0,1-.07-.019.094.094,0,0,1-.037-.089.231.231,0,0,1,.052-.119.3.3,0,0,1,.054-.057.3.3,0,0,1,.044-.029l-.012-.022.022-.028.082.063-.022.029a.068.068,0,0,0-.04,0,.121.121,0,0,0-.047.022.243.243,0,0,0-.047.048.3.3,0,0,0-.032.053.032.032,0,0,0,.006.044.024.024,0,0,0,.017.005.054.054,0,0,0,.022-.009.489.489,0,0,0,.043-.032l.036-.028a.47.47,0,0,1,.108-.067.1.1,0,0,1,.1.02" transform="translate(6422.974 -226.912)" fill="#003a84"/>
    <path id="Path_3410" data-name="Path 3410" d="M100.422,87.1l-.154.226.031.018a.2.2,0,0,0,.054.022.106.106,0,0,0,.061,0,.109.109,0,0,0,.055-.046.172.172,0,0,0,.022-.054.122.122,0,0,0-.006-.074l.039-.015a.182.182,0,0,1-.024.185.279.279,0,0,1-.065.069.21.21,0,0,1-.074.036.177.177,0,0,1-.076,0,.189.189,0,0,1-.072-.03.2.2,0,0,1-.068-.078.19.19,0,0,1-.018-.1.224.224,0,0,1,.04-.107.19.19,0,0,1,.08-.07.162.162,0,0,1,.091-.013.206.206,0,0,1,.085.033m-.1.068q-.084-.057-.129.009a.069.069,0,0,0-.01.065.131.131,0,0,0,.048.06Z" transform="translate(6421.431 -225.203)" fill="#003a84"/>
    <path id="Path_3411" data-name="Path 3411" d="M101.5,84.545a.053.053,0,0,1,.02.074.056.056,0,0,1-.044.025l-.021,0a.024.024,0,0,0-.013.012.059.059,0,0,0,0,.066.168.168,0,0,0,.057.057l.066.04a.1.1,0,0,0,.049.018c.011,0,.024-.013.038-.036l.012-.02.035.021-.143.236-.035-.021.012-.02c.013-.021.017-.037.012-.047a.108.108,0,0,0-.039-.034l-.111-.067a.112.112,0,0,0-.04-.017.031.031,0,0,0-.026.01.216.216,0,0,0-.03.04l-.035-.021.058-.168a.608.608,0,0,1,.089.039.187.187,0,0,1-.024-.053.172.172,0,0,1-.006-.057.108.108,0,0,1,.015-.051.08.08,0,0,1,.048-.039.067.067,0,0,1,.054.008" transform="translate(6420.447 -223.016)" fill="#003a84"/>
    <path id="Path_3412" data-name="Path 3412" d="M102.739,81.664a.038.038,0,0,0,0,.034.344.344,0,0,0,.031.05l.176.245-.029.055-.332,0a.113.113,0,0,0-.038,0,.072.072,0,0,0-.021.024l-.036-.019.1-.192.036.019a.149.149,0,0,0-.012.032.014.014,0,0,0,.007.016.069.069,0,0,0,.027,0l.2,0-.116-.162a.077.077,0,0,0-.02-.021.015.015,0,0,0-.019,0,.123.123,0,0,0-.019.029l-.036-.019.063-.119Z" transform="translate(6419.39 -220.518)" fill="#003a84"/>
    <path id="Path_3413" data-name="Path 3413" d="M104.591,79.745a.113.113,0,0,1,.047.037.084.084,0,0,1,.016.048.119.119,0,0,1-.012.053.1.1,0,0,1-.042.049.067.067,0,0,1-.051.009.239.239,0,0,1-.008.161.126.126,0,0,1-.054.062.074.074,0,0,1-.069,0,.1.1,0,0,1-.045-.039.153.153,0,0,1-.021-.063.373.373,0,0,1,0-.084q0-.046.017-.113l-.023-.011a.076.076,0,0,0-.051-.007.068.068,0,0,0-.039.042.07.07,0,0,0-.008.051.075.075,0,0,0,.031.036A.079.079,0,0,1,104.3,80a.047.047,0,0,1,0,.042.053.053,0,0,1-.023.025.037.037,0,0,1-.035,0,.087.087,0,0,1-.047-.071.247.247,0,0,1,.03-.138.206.206,0,0,1,.086-.108.112.112,0,0,1,.1,0l.128.059.036.015a.031.031,0,0,0,.02,0,.026.026,0,0,0,.011-.038.048.048,0,0,0-.023-.02Zm-.082.187-.1-.046a.265.265,0,0,0,0,.119.077.077,0,0,0,.036.042.045.045,0,0,0,.035,0,.048.048,0,0,0,.026-.027.089.089,0,0,0,.009-.043.262.262,0,0,0-.008-.047" transform="translate(6417.915 -218.875)" fill="#003a84"/>
    <path id="Path_3414" data-name="Path 3414" d="M105.144,77.363a.176.176,0,0,1,.046.079.132.132,0,0,1-.008.078.117.117,0,0,1-.049.064.088.088,0,0,1-.056.011.28.28,0,0,1-.057-.017l-.194-.078-.025.062-.038-.015a.158.158,0,0,0,.012-.074.128.128,0,0,0-.022-.062.145.145,0,0,0-.045-.043l.014-.034.109.044.047-.117.038.015-.047.117.2.079a.216.216,0,0,0,.054.016.023.023,0,0,0,.025-.017.044.044,0,0,0,0-.039.232.232,0,0,0-.029-.04Z" transform="translate(6417.469 -216.727)" fill="#003a84"/>
    <path id="Path_3415" data-name="Path 3415" d="M104.448,75.753a.063.063,0,1,1-.05,0,.063.063,0,0,1,.05,0m.537.141-.082.227-.038-.014,0-.012a.075.075,0,0,0,.006-.038.029.029,0,0,0-.014-.02.209.209,0,0,0-.035-.015l-.124-.045a.17.17,0,0,0-.038-.01.027.027,0,0,0-.022.011.151.151,0,0,0-.022.042l-.038-.014.026-.184.257.093a.1.1,0,0,0,.051.009c.011,0,.021-.017.03-.042Z" transform="translate(6417.769 -215.42)" fill="#003a84"/>
    <path id="Path_3416" data-name="Path 3416" d="M106.954,73.32a.186.186,0,0,1,.134.156.25.25,0,0,1-.01.112.262.262,0,0,1-.052.095.193.193,0,0,1-.088.058.182.182,0,0,1-.113,0,.173.173,0,0,1-.12-.106.251.251,0,0,1,0-.164.24.24,0,0,1,.06-.1.182.182,0,0,1,.09-.049.2.2,0,0,1,.1,0m-.039.116a.253.253,0,0,0-.115-.015.079.079,0,0,0-.06.063.078.078,0,0,0,.039.1.4.4,0,0,0,.084.035.283.283,0,0,0,.111.015c.031,0,.052-.024.064-.064a.079.079,0,0,0,0-.066.112.112,0,0,0-.047-.043.462.462,0,0,0-.073-.029" transform="translate(6415.756 -213.312)" fill="#003a84"/>
    <path id="Path_3417" data-name="Path 3417" d="M107.943,70.091l-.054.224-.04-.009a.076.076,0,0,0,0-.038.029.029,0,0,0-.016-.018.251.251,0,0,0-.042-.013l-.122-.029a.133.133,0,0,0-.061,0,.046.046,0,0,0-.032.039.077.077,0,0,0,.019.076.149.149,0,0,0,.075.041l.1.023a.082.082,0,0,0,.049,0c.01,0,.018-.018.023-.04l.04.01-.055.228-.04-.009a.131.131,0,0,0,0-.043.028.028,0,0,0-.013-.022.141.141,0,0,0-.039-.014l-.14-.034a.051.051,0,0,0-.042,0,.1.1,0,0,0-.022.05l-.04-.01,0-.177a.311.311,0,0,1,.048.007l.01,0,.009,0a.3.3,0,0,1-.034-.068.14.14,0,0,1,0-.078.168.168,0,0,1,.029-.064.107.107,0,0,1,.052-.037.125.125,0,0,1,.07,0l.146.035a.094.094,0,0,0,.052,0c.011,0,.019-.02.025-.047Z" transform="translate(6415.06 -210.52)" fill="#003a84"/>
    <path id="Path_3418" data-name="Path 3418" d="M110.3,67.805a.176.176,0,0,1,.076.032.154.154,0,0,1,.051.064.2.2,0,0,1,.016.09l-.04-.007a.178.178,0,0,0-.021-.085.079.079,0,0,0-.057-.04.03.03,0,0,0-.017,0,.013.013,0,0,0-.008.01.069.069,0,0,0,0,.015.074.074,0,0,1,0,.022.068.068,0,0,1-.077.053.065.065,0,0,1-.047-.03.074.074,0,0,1-.011-.053.079.079,0,0,1,.021-.04.106.106,0,0,1,.047-.029.141.141,0,0,1,.069,0" transform="translate(6412.75 -208.55)" fill="#003a84"/>
    <path id="Path_3419" data-name="Path 3419" d="M107.883,58.064l-.009.3h-.041a.156.156,0,0,0-.006-.058.041.041,0,0,0-.022-.025.122.122,0,0,0-.04-.007l-.378-.011.483.242v.027l-.5.217.359.01h.044a.051.051,0,0,0,.026-.009.048.048,0,0,0,.017-.026.185.185,0,0,0,.007-.049h.041l-.007.223h-.041a.175.175,0,0,0,0-.05.047.047,0,0,0-.015-.026.052.052,0,0,0-.025-.011l-.043,0-.341-.01a.265.265,0,0,0-.055,0,.038.038,0,0,0-.026.021.152.152,0,0,0-.01.06h-.041l.006-.22.431-.188-.42-.213.006-.216h.041a.107.107,0,0,0,.014.072.076.076,0,0,0,.054.018l.379.011a.119.119,0,0,0,.04,0,.041.041,0,0,0,.024-.024.155.155,0,0,0,.01-.058Z" transform="translate(6415.266 -200.115)" fill="#003a84"/>
    <path id="Path_3420" data-name="Path 3420" d="M107.4,53.2a.316.316,0,0,1,.157.027.29.29,0,0,1,.124.106.363.363,0,0,1,.058.177.383.383,0,0,1-.015.152.3.3,0,0,1-.065.112.311.311,0,0,1-.1.069.326.326,0,0,1-.109.029.321.321,0,0,1-.155-.025.287.287,0,0,1-.124-.1.359.359,0,0,1-.058-.178.385.385,0,0,1,.018-.166.283.283,0,0,1,.071-.111.312.312,0,0,1,.1-.062.346.346,0,0,1,.1-.024m.01.144a.514.514,0,0,0-.1.016.255.255,0,0,0-.079.037.162.162,0,0,0-.053.064.186.186,0,0,0-.014.095.174.174,0,0,0,.048.116.191.191,0,0,0,.1.05.483.483,0,0,0,.126.005.607.607,0,0,0,.077-.011.29.29,0,0,0,.081-.03.172.172,0,0,0,.067-.065.178.178,0,0,0,.02-.108.172.172,0,0,0-.038-.1.179.179,0,0,0-.078-.053.309.309,0,0,0-.084-.016.682.682,0,0,0-.075,0" transform="translate(6415.385 -195.926)" fill="#003a84"/>
    <path id="Path_3421" data-name="Path 3421" d="M107.171,48.944l.046.28-.04.007a.192.192,0,0,0-.014-.051.022.022,0,0,0-.027-.012.072.072,0,0,0-.026.01l-.066.04.032.193.041.008a.155.155,0,0,0,.049,0,.031.031,0,0,0,.03-.026.149.149,0,0,0,0-.049l.04-.007.034.2-.04.007a.088.088,0,0,0-.016-.04.1.1,0,0,0-.04-.027.477.477,0,0,0-.078-.022l-.478-.1-.007-.042.434-.258c.031-.019.051-.032.062-.04a.066.066,0,0,0,.022-.03.092.092,0,0,0,0-.047Zm-.166.3-.194.116.22.044Z" transform="translate(6415.824 -192.244)" fill="#003a84"/>
    <path id="Path_3422" data-name="Path 3422" d="M38.551,81.082l-.159.272h-.568l-.162-.272h-.579l.269.764-1.66,1.161a4.9,4.9,0,0,0,3.026.956l.145-1.894.353-.987Z" transform="translate(6477.14 -220.031)" fill="#59b7e1"/>
    <path id="Path_3423" data-name="Path 3423" d="M16.912,58.2l-.507-.547a3.386,3.386,0,0,0,2.471-1.009l.542.1A4.311,4.311,0,0,1,16.912,58.2m-1.771-4.149s-.032-.633.023-.623l1.36.706a3.263,3.263,0,0,1-1.383-.083m4.334,2.637h0l-.623-.115.091-.494-.577-.107.085-.489L17.432,55.3l.09-.481L16.5,54.627l.1-.528-1.462-.774a4.066,4.066,0,0,0,.032,1.32,3.705,3.705,0,0,0,1.322.047l.932.165a3.658,3.658,0,0,1-2.265.245c.044.2.1.39.157.571a3.661,3.661,0,0,0,2.122-.305l.939.174a6.39,6.39,0,0,1-2.863.655c.077.178.157.343.237.494a4.658,4.658,0,0,0,2.585-.635l.51.094a3.658,3.658,0,0,1-2.819,1.038,4.644,4.644,0,0,0,.437.562,7.115,7.115,0,0,0,1.546,1.325l1.722-1.2Z" transform="translate(6494.945 -196.032)" fill="#2c823a"/>
    <path id="Path_3424" data-name="Path 3424" d="M60.145,71.241c-.194.174-.2.307-.5.766a4.2,4.2,0,0,1-.458.627,2.5,2.5,0,0,1-.952.622h0a2.723,2.723,0,0,1-1.554.228.58.58,0,0,1-.544-.764c.053-.236.177-.25.364-.592a.921.921,0,0,0,.177-.6.7.7,0,0,0-.3-.429,3.494,3.494,0,0,1-.405.676c-.378.495-.691.578-.969.991a1.634,1.634,0,0,0-.326.957l.142,1.475a6.17,6.17,0,0,0,1.449-.1,6.1,6.1,0,0,0,2.472-1.079,5.916,5.916,0,0,0,1.4-1.45,5.657,5.657,0,0,0,.749-1.641,1.324,1.324,0,0,0-.75.312" transform="translate(6460.722 -211.253)" fill="#2c823a"/>
    <path id="Path_3425" data-name="Path 3425" d="M69.609,74.684a2.966,2.966,0,0,0,.711-.823,2.874,2.874,0,0,1,.547-.846,1.685,1.685,0,0,1,.424-.284c-.092.213-.2.439-.325.673a9.023,9.023,0,0,1-.479.793,2.733,2.733,0,0,0,.521-.585c.287-.439.334-.769.675-.981a1.007,1.007,0,0,1,.379-.137l-.911,1.665a2.875,2.875,0,0,0,.572-.675c.281-.463.351-.837.7-.995a.772.772,0,0,1,.339-.065c-.03.052-.078.136-.133.239-.159.3-.239.512-.29.6a2.912,2.912,0,0,1-.884,1.038,2.46,2.46,0,0,1-.635.3,2.592,2.592,0,0,1-1.211.08" transform="translate(6447.815 -212.546)" fill="#2c823a"/>
    <path id="Path_3426" data-name="Path 3426" d="M91.2,57.967s.074,0,.5-.644a5.629,5.629,0,0,0,.509.636,1.116,1.116,0,0,0-.506-.074,1.035,1.035,0,0,0-.507.082" transform="translate(6429.145 -199.489)" fill="#2c823a"/>
    <path id="Path_3427" data-name="Path 3427" d="M91.2,55.113s.074,0,.5-.656a5.717,5.717,0,0,0,.509.647,1.1,1.1,0,0,0-.506-.075,1.021,1.021,0,0,0-.507.084" transform="translate(6429.145 -197.011)" fill="#2c823a"/>
    <path id="Path_3428" data-name="Path 3428" d="M92,52.222s.058,0,.4-.657a5.755,5.755,0,0,0,.4.648.707.707,0,0,0-.4-.075.662.662,0,0,0-.4.084" transform="translate(6428.454 -194.51)" fill="#2c823a"/>
    <path id="Path_3429" data-name="Path 3429" d="M92.478,50.375s.049,0,.332-.551a4.848,4.848,0,0,0,.336.543.591.591,0,0,0-.334-.063.555.555,0,0,0-.334.07" transform="translate(6428.043 -193.005)" fill="#2c823a"/>
    <path id="Path_3430" data-name="Path 3430" d="M93.024,48.446s.039,0,.263-.436a3.839,3.839,0,0,0,.266.43.471.471,0,0,0-.264-.05.44.44,0,0,0-.265.056" transform="translate(6427.571 -191.437)" fill="#2c823a"/>
    <rect id="Rectangle_1033" data-name="Rectangle 1033" width="0.128" height="2.071" transform="translate(6520.788 -141.7)" fill="#2c823a"/>
    <path id="Path_3431" data-name="Path 3431" d="M56.82,72.293s.069,0,.472-.6a5.266,5.266,0,0,0,.476.6,1.041,1.041,0,0,0-.473-.069.968.968,0,0,0-.475.077" transform="translate(6458.873 -211.911)" fill="#2c823a"/>
    <path id="Path_3432" data-name="Path 3432" d="M56.82,69.623s.069,0,.472-.614a5.339,5.339,0,0,0,.476.606,1.027,1.027,0,0,0-.473-.07.955.955,0,0,0-.475.078" transform="translate(6458.873 -209.593)" fill="#2c823a"/>
    <path id="Path_3433" data-name="Path 3433" d="M57.568,66.917s.054,0,.371-.614a5.406,5.406,0,0,0,.374.606.662.662,0,0,0-.372-.07.619.619,0,0,0-.373.079" transform="translate(6458.226 -207.253)" fill="#2c823a"/>
    <path id="Path_3434" data-name="Path 3434" d="M58.013,65.189s.046,0,.311-.515a4.522,4.522,0,0,0,.314.508.553.553,0,0,0-.312-.059.519.519,0,0,0-.313.066" transform="translate(6457.842 -205.845)" fill="#2c823a"/>
    <path id="Path_3435" data-name="Path 3435" d="M58.523,63.385s.036,0,.247-.408a3.589,3.589,0,0,0,.249.4.44.44,0,0,0-.247-.047.411.411,0,0,0-.248.052" transform="translate(6457.4 -204.377)" fill="#2c823a"/>
    <rect id="Rectangle_1034" data-name="Rectangle 1034" width="0.12" height="1.18" transform="translate(6516.104 -139.784)" fill="#2c823a"/>
    <path id="Path_3436" data-name="Path 3436" d="M71.294,57.124l.017-.02,0-.006.578-.652.008-.006.022-.025.023.025.007.006.086.1.489.542h1.28l-.75-.839H71.924l-.574.619a.039.039,0,0,1-.008.014l-.142.152Z" transform="translate(6446.44 -198.557)" fill="#2c823a"/>
    <path id="Path_3437" data-name="Path 3437" d="M65.562,61.193a.039.039,0,0,1,0-.055l.115-.124h-.628l-.263.277h.874Z" transform="translate(6451.986 -202.68)" fill="#2c823a"/>
    <path id="Path_3438" data-name="Path 3438" d="M73.641,58.969l-.539-.608-.539.608v1.579h.9a1.808,1.808,0,0,1,.181-.121Z" transform="translate(6445.262 -200.386)" fill="#2c823a"/>
    <path id="Path_3439" data-name="Path 3439" d="M81.413,63.029V64.4l.028-.014a.129.129,0,0,1,.176.073.988.988,0,0,1,.2-.167,1.13,1.13,0,0,1,.427-.155.129.129,0,0,1,.114.04V63.029Z" transform="translate(6437.61 -204.422)" fill="#2c823a"/>
    <path id="Path_3440" data-name="Path 3440" d="M65.562,63.933v1.174c.039-.071.076-.144.11-.219a.129.129,0,0,1,.192-.052.821.821,0,0,1,.354.512c0,.006,0,.011,0,.017h.167V63.933Z" transform="translate(6451.314 -205.204)" fill="#2c823a"/>
    <path id="Path_3441" data-name="Path 3441" d="M20.859,26.845a5.987,5.987,0,1,1,5.987-5.987,5.993,5.993,0,0,1-5.987,5.987m0-11.775a5.789,5.789,0,1,0,5.789,5.789,5.8,5.8,0,0,0-5.789-5.789" transform="translate(6495.142 -162.785)" fill="#2c823a"/>
    <path id="Path_3442" data-name="Path 3442" d="M37.9,37.071a.924.924,0,1,0,.919.925.922.922,0,0,0-.919-.925" transform="translate(6476.027 -181.979)" fill="#c9171d"/>
    <rect id="Rectangle_1035" data-name="Rectangle 1035" width="0.143" height="1.841" transform="translate(6513.831 -142.682)" fill="#c9171d"/>
    <path id="Path_3443" data-name="Path 3443" d="M47.955,52.087l.7,1.212.123-.072-.7-1.212Z" transform="translate(6466.538 -194.9)" fill="#c9171d"/>
    <path id="Path_3444" data-name="Path 3444" d="M33.321,53.085l.124.072.7-1.212-.124-.072Z" transform="translate(6479.191 -194.777)" fill="#c9171d"/>
    <rect id="Rectangle_1036" data-name="Rectangle 1036" width="0.143" height="1.371" transform="translate(6513.831 -146.642)" fill="#c9171d"/>
    <rect id="Rectangle_1037" data-name="Rectangle 1037" width="0.914" height="0.144" transform="translate(6515.236 -144.046)" fill="#c9171d"/>
    <rect id="Rectangle_1038" data-name="Rectangle 1038" width="0.914" height="0.144" transform="translate(6511.749 -144.046)" fill="#c9171d"/>
    <path id="Path_3445" data-name="Path 3445" d="M35.626,30.309l-.457-.8-.124.072.457.8Z" transform="translate(6477.7 -175.443)" fill="#c9171d"/>
    <path id="Path_3446" data-name="Path 3446" d="M30.177,35.739l-.792-.46-.071.124.792.46Z" transform="translate(6482.655 -180.429)" fill="#c9171d"/>
    <path id="Path_3447" data-name="Path 3447" d="M30.106,48.165l-.792.46.071.124.792-.46Z" transform="translate(6482.655 -191.571)" fill="#c9171d"/>
    <path id="Path_3448" data-name="Path 3448" d="M51.495,48.29l.792.46.071-.124-.792-.46Z" transform="translate(6463.478 -191.571)" fill="#c9171d"/>
    <path id="Path_3449" data-name="Path 3449" d="M51.564,35.864l.792-.46-.071-.124-.792.46Z" transform="translate(6463.479 -180.43)" fill="#c9171d"/>
    <path id="Path_3450" data-name="Path 3450" d="M48.43,29.585l-.124-.072-.457.8.123.072Z" transform="translate(6466.629 -175.444)" fill="#c9171d"/>
    <rect id="Rectangle_1039" data-name="Rectangle 1039" width="0.147" height="0.593" transform="translate(6517.536 -146.051)" fill="#59b7e1"/>
    <rect id="Rectangle_1040" data-name="Rectangle 1040" width="0.147" height="0.592" transform="translate(6517.536 -144.255)" fill="#59b7e1"/>
    <rect id="Rectangle_1041" data-name="Rectangle 1041" width="0.147" height="0.593" transform="translate(6518.892 -146.051)" fill="#59b7e1"/>
    <rect id="Rectangle_1042" data-name="Rectangle 1042" width="0.147" height="0.592" transform="translate(6518.892 -144.255)" fill="#59b7e1"/>
    <rect id="Rectangle_1043" data-name="Rectangle 1043" width="0.147" height="0.592" transform="translate(6516.858 -146.949)" fill="#59b7e1"/>
    <rect id="Rectangle_1044" data-name="Rectangle 1044" width="0.147" height="0.592" transform="translate(6516.858 -145.153)" fill="#59b7e1"/>
    <rect id="Rectangle_1045" data-name="Rectangle 1045" width="0.147" height="0.592" transform="translate(6516.858 -143.357)" fill="#59b7e1"/>
    <rect id="Rectangle_1046" data-name="Rectangle 1046" width="0.147" height="0.592" transform="translate(6518.214 -146.777)" fill="#59b7e1"/>
    <rect id="Rectangle_1047" data-name="Rectangle 1047" width="0.147" height="0.592" transform="translate(6518.214 -145.153)" fill="#59b7e1"/>
    <rect id="Rectangle_1048" data-name="Rectangle 1048" width="0.147" height="0.593" transform="translate(6518.214 -143.529)" fill="#59b7e1"/>
    <rect id="Rectangle_1049" data-name="Rectangle 1049" width="0.147" height="0.593" transform="translate(6519.569 -145.279)" fill="#59b7e1"/>
    <rect id="Rectangle_1050" data-name="Rectangle 1050" width="0.147" height="0.592" transform="translate(6519.569 -143.706)" fill="#59b7e1"/>
    <rect id="Rectangle_1051" data-name="Rectangle 1051" width="0.147" height="0.592" transform="translate(6520.247 -144.345)" fill="#59b7e1"/>
  </g>
</svg>
