<svg xmlns="http://www.w3.org/2000/svg" width="30" height="30" viewBox="0 0 30 30">
  <path id="ic-setting" d="M17.634,1.969a2.747,2.747,0,0,0-5.269,0l-.187.638A2.745,2.745,0,0,1,8.231,4.241L7.65,3.923A2.747,2.747,0,0,0,3.924,7.648l.317.583a2.745,2.745,0,0,1-1.635,3.947l-.638.188a2.747,2.747,0,0,0,0,5.269l.638.188a2.745,2.745,0,0,1,1.635,3.947l-.319.581a2.747,2.747,0,0,0,3.726,3.726l.583-.317a2.745,2.745,0,0,1,3.947,1.635l.188.638a2.747,2.747,0,0,0,5.269,0l.188-.638a2.745,2.745,0,0,1,3.947-1.635l.581.319a2.747,2.747,0,0,0,3.726-3.726l-.317-.583a2.745,2.745,0,0,1,1.635-3.947l.638-.187a2.747,2.747,0,0,0,0-5.269l-.638-.187a2.745,2.745,0,0,1-1.635-3.947l.319-.581a2.747,2.747,0,0,0-3.726-3.726l-.583.317a2.745,2.745,0,0,1-3.947-1.635ZM15,20.494A5.494,5.494,0,1,1,20.492,15,5.494,5.494,0,0,1,15,20.494Z" fill="#b9b9b9"/>
</svg>
