<svg xmlns="http://www.w3.org/2000/svg" width="27" height="27" viewBox="0 0 27 27">
  <g id="ic-user" transform="translate(-7246 131)">
    <g id="person-circle_2_" data-name="person-circle (2)" transform="translate(7250 -127)">
      <path id="Path_3065" data-name="Path 3065" d="M11,6A3,3,0,1,1,8,3a3,3,0,0,1,3,3" transform="translate(2 1.2)" fill="#00b174"/>
      <path id="Path_3066" data-name="Path 3066" d="M0,10A10,10,0,1,1,10,20,10,10,0,0,1,0,10M10,1.25A8.75,8.75,0,0,0,3.165,15.463C4.053,14.033,6.006,12.5,10,12.5s5.946,1.531,6.835,2.962A8.75,8.75,0,0,0,10,1.25" fill="#00b174" fill-rule="evenodd"/>
    </g>
    <rect id="Rectangle_1054" data-name="Rectangle 1054" width="27" height="27" transform="translate(7246 -131)" fill="none"/>
  </g>
</svg>
