<svg xmlns="http://www.w3.org/2000/svg" width="40" height="25" viewBox="0 0 40 25">
  <g id="ic-upload" transform="translate(-1231 -2044)">
    <path id="ic-upload-2" data-name="ic-upload" d="M13.176,2A9.108,9.108,0,0,0,7.256,4.21,6.926,6.926,0,0,0,4.845,8.135,6.053,6.053,0,0,0,6.227,20.116H20.895a5.308,5.308,0,0,0,.789-10.575A8.458,8.458,0,0,0,13.176,2m3.877,8.475a.825.825,0,1,1-1.166,1.166L14,9.752V16a.823.823,0,1,1-1.647,0V9.752l-1.887,1.889A.825.825,0,0,1,9.3,10.475l3.294-3.294a.823.823,0,0,1,1.166,0Z" transform="translate(1231 2045)" fill="#00b174"/>
    <rect id="Rectangle_1033" data-name="Rectangle 1033" width="40" height="25" transform="translate(1231 2044)" fill="none"/>
  </g>
</svg>
